<svg width="95" height="90" viewBox="0 0 95 90" fill="none" xmlns="http://www.w3.org/2000/svg">
<path d="M0.468564 44.4601L0 44.5146L0.836382 51.6219L1.30495 51.5674L0.468564 44.4601Z" fill="#407BFF"/>
<path d="M1.61456 54.2087L1.146 54.2632L1.56777 57.8473L2.03634 57.7928L1.61456 54.2087Z" fill="#407BFF"/>
<path d="M32.8501 29.973L32.2929 28.42C31.503 26.2185 29.2886 24.8506 26.9534 25.1221L4.76201 27.7026C1.9936 28.0244 0.0122496 30.5163 0.335897 33.2686L6.65281 86.9587C6.87477 88.8458 8.59377 90.1971 10.492 89.9764L89.8895 80.7441C91.7877 80.5234 93.1469 78.8144 92.9249 76.9272L87.4647 30.514C87.2428 28.6268 85.5238 27.2756 83.6255 27.4963L37.5205 32.8573C35.4778 33.0946 33.5411 31.8985 32.8501 29.973Z" fill="#407BFF"/>
<path d="M35.0718 6.6199L9.98486 11.5918L16.8747 45.9526L41.9617 40.9807L35.0718 6.6199Z" fill="#407BFF"/>
<path opacity="0.7" d="M35.0718 6.6199L9.98486 11.5918L16.8747 45.9526L41.9617 40.9807L35.0718 6.6199Z" fill="white"/>
<g opacity="0.4">
<path d="M31.7179 14.8936L16.2641 17.9556C15.5147 18.1043 14.7861 17.6205 14.6366 16.8754C14.4871 16.1303 14.9737 15.406 15.7232 15.2574L31.177 12.1953C31.9264 12.0466 32.655 12.5305 32.8045 13.2755C32.954 14.0206 32.4674 14.7449 31.7179 14.8936Z" fill="#407BFF"/>
<path d="M32.8568 20.5747L17.4031 23.6368C16.6536 23.7854 15.925 23.3016 15.7755 22.5565C15.626 21.8115 16.1126 21.0871 16.8621 20.9385L32.3159 17.8764C33.0653 17.7278 33.7939 18.2116 33.9434 18.9567C34.0925 19.7022 33.6063 20.4265 32.8568 20.5747Z" fill="#407BFF"/>
<path d="M33.996 26.2569L18.5422 29.3189C17.7928 29.4676 17.0642 28.9838 16.9147 28.2387C16.7652 27.4936 17.2518 26.7693 18.0013 26.6206L33.4551 23.5586C34.2045 23.4099 34.9331 23.8937 35.0826 24.6388C35.2316 25.3839 34.7455 26.1082 33.996 26.2569Z" fill="#407BFF"/>
<path d="M35.1349 31.9385L19.6811 35.0006C18.9317 35.1492 18.2031 34.6654 18.0536 33.9203C17.9041 33.1752 18.3907 32.4509 19.1402 32.3023L34.594 29.2402C35.3434 29.0916 36.072 29.5754 36.2215 30.3205C36.3705 31.066 35.8844 31.7903 35.1349 31.9385Z" fill="#407BFF"/>
<path d="M32.0504 38.4571L20.8203 40.6822C20.0708 40.8308 19.3423 40.347 19.1928 39.6019C19.0432 38.8568 19.5299 38.1325 20.2793 37.9839L31.5095 35.7588C32.2589 35.6101 32.9875 36.0939 33.137 36.839C33.286 37.5841 32.7999 38.3084 32.0504 38.4571Z" fill="#407BFF"/>
</g>
<path d="M70.8182 0.000191327L45.4729 3.44873L50.2517 38.1634L75.5971 34.7149L70.8182 0.000191327Z" fill="#407BFF"/>
<path opacity="0.7" d="M70.8182 0.000191327L45.4729 3.44873L50.2517 38.1634L75.5971 34.7149L70.8182 0.000191327Z" fill="white"/>
<g opacity="0.4">
<path d="M66.9656 8.04941L51.3535 10.1739C50.5966 10.2768 49.8987 9.75009 49.7952 8.99762C49.6916 8.24514 50.2214 7.5513 50.9783 7.44835L66.5904 5.32389C67.3473 5.22094 68.0452 5.74767 68.1488 6.50015C68.2528 7.25308 67.723 7.94646 66.9656 8.04941Z" fill="#407BFF"/>
<path d="M67.7559 13.7897L52.1438 15.9141C51.3869 16.0171 50.689 15.4903 50.5854 14.7379C50.4819 13.9849 51.0117 13.2916 51.7686 13.1886L67.3807 11.0646C68.1376 10.9617 68.8355 11.4884 68.9391 12.2409C69.0426 12.9929 68.5128 13.6867 67.7559 13.7897Z" fill="#407BFF"/>
<path d="M57.2357 21.0684L52.9341 21.6538C52.1772 21.7568 51.4793 21.23 51.3757 20.4775C51.2722 19.7246 51.802 19.0312 52.5589 18.9283L56.8605 18.3429C57.6174 18.24 58.3153 18.7667 58.4189 19.5192C58.5224 20.2721 57.9931 20.9655 57.2357 21.0684Z" fill="#407BFF"/>
<path d="M65.5778 19.9332L61.2761 20.5186C60.5192 20.6215 59.8213 20.0948 59.7178 19.3423C59.6142 18.5898 60.144 17.896 60.9009 17.793L65.2026 17.2077C65.9595 17.1047 66.6574 17.6315 66.7609 18.3839C66.8645 19.1364 66.3346 19.8303 65.5778 19.9332Z" fill="#407BFF"/>
<path d="M69.336 25.2696L53.7238 27.3941C52.967 27.497 52.2691 26.9703 52.1655 26.2178C52.062 25.4649 52.5918 24.7715 53.3487 24.6686L68.9608 22.5441C69.7181 22.4412 70.4156 22.9679 70.5191 23.7204C70.6231 24.4728 70.0933 25.1662 69.336 25.2696Z" fill="#407BFF"/>
<path d="M65.8597 31.5899L54.5144 33.1337C53.7575 33.2366 53.0596 32.7099 52.956 31.9574C52.8525 31.2049 53.3823 30.5111 54.1392 30.4081L65.4845 28.8644C66.2414 28.7615 66.9393 29.2882 67.0428 30.0407C67.1468 30.7931 66.617 31.487 65.8597 31.5899Z" fill="#407BFF"/>
</g>
<path d="M46.8953 5.06889L21.4119 7.27637L24.4709 42.1803L49.9543 39.9728L46.8953 5.06889Z" fill="#407BFF"/>
<path opacity="0.8" d="M46.8953 5.06889L21.4119 7.27637L24.4709 42.1803L49.9543 39.9728L46.8953 5.06889Z" fill="white"/>
<g opacity="0.4">
<path d="M42.6581 12.9243L26.96 14.2842C26.199 14.3503 25.528 13.7903 25.4616 13.0332C25.3952 12.2766 25.9585 11.6095 26.72 11.5435L42.418 10.1835C43.1791 10.1175 43.8501 10.6775 43.9165 11.4346C43.9824 12.1916 43.4191 12.8582 42.6581 12.9243Z" fill="#407BFF"/>
<path d="M43.1637 18.6962L27.4657 20.0562C26.7046 20.1222 26.0336 19.5622 25.9672 18.8052C25.9008 18.0485 26.4641 17.3815 27.2256 17.3154L42.9236 15.955C43.6847 15.889 44.3557 16.449 44.4221 17.206C44.4885 17.9631 43.9252 18.6302 43.1637 18.6962Z" fill="#407BFF"/>
<path d="M43.6698 24.4677L27.9718 25.8277C27.2107 25.8937 26.5397 25.3337 26.4733 24.5767C26.4069 23.8196 26.9702 23.153 27.7317 23.087L43.4297 21.727C44.1908 21.661 44.8618 22.2209 44.9282 22.978C44.9946 23.7346 44.4309 24.4017 43.6698 24.4677Z" fill="#407BFF"/>
<path d="M44.1762 30.2392L28.4781 31.5992C27.7166 31.6652 27.0461 31.1052 26.9797 30.3481C26.9133 29.5915 27.4765 28.9245 28.2381 28.8584L43.9361 27.4985C44.6971 27.4324 45.3681 27.9924 45.4345 28.7495C45.5005 29.5061 44.9372 30.1732 44.1762 30.2392Z" fill="#407BFF"/>
<path d="M40.3915 36.3828L28.984 37.3711C28.2229 37.4371 27.5519 36.8772 27.4855 36.1201C27.4191 35.3635 27.9824 34.6964 28.7439 34.6304L40.1514 33.642C40.9125 33.576 41.5835 34.136 41.6499 34.893C41.7158 35.6497 41.1525 36.3167 40.3915 36.3828Z" fill="#407BFF"/>
</g>
<path d="M77.9521 3.36452L52.4021 4.59033L54.1008 39.5853L79.6507 38.3595L77.9521 3.36452Z" fill="#407BFF"/>
<path opacity="0.8" d="M77.9521 3.36452L52.4021 4.59033L54.1008 39.5853L79.6507 38.3595L77.9521 3.36452Z" fill="white"/>
<g opacity="0.4">
<path d="M73.4136 11.052L57.6743 11.8072C56.9109 11.8437 56.2622 11.2584 56.2255 10.4994C56.1888 9.74049 56.7776 9.09557 57.5405 9.0591L73.2799 8.30386C74.0433 8.26739 74.6915 8.85275 74.7286 9.61169C74.7658 10.3702 74.1765 11.0151 73.4136 11.052Z" fill="#407BFF"/>
<path d="M73.6946 16.8386L57.9553 17.5939C57.1919 17.6303 56.5437 17.045 56.5065 16.286C56.4698 15.5271 57.0586 14.8822 57.822 14.8457L73.5613 14.0905C74.3247 14.054 74.9734 14.6394 75.0101 15.3983C75.0468 16.1568 74.458 16.8017 73.6946 16.8386Z" fill="#407BFF"/>
<path d="M62.573 23.1726L58.236 23.3808C57.4726 23.4173 56.824 22.8319 56.7873 22.073C56.7506 21.314 57.3394 20.6696 58.1023 20.6327L62.4392 20.4245C63.2026 20.388 63.8513 20.9734 63.888 21.7323C63.9251 22.4912 63.3364 23.1361 62.573 23.1726Z" fill="#407BFF"/>
<path d="M70.9829 22.7688L66.6459 22.977C65.8826 23.0135 65.2339 22.4281 65.1972 21.6692C65.1605 20.9102 65.7493 20.2658 66.5127 20.2289L70.8496 20.0207C71.613 19.9842 72.2617 20.5695 72.2984 21.3285C72.3351 22.0874 71.7463 22.7319 70.9829 22.7688Z" fill="#407BFF"/>
<path d="M74.2564 28.4119L58.517 29.1671C57.7537 29.2036 57.1054 28.6182 57.0683 27.8593C57.0316 27.1003 57.6204 26.4554 58.3838 26.419L74.1231 25.6637C74.8865 25.6273 75.5352 26.2126 75.5719 26.9715C75.6086 27.7305 75.0198 28.3749 74.2564 28.4119Z" fill="#407BFF"/>
<path d="M70.2362 34.405L58.7985 34.9539C58.0351 34.9904 57.3865 34.405 57.3498 33.6461C57.3131 32.8872 57.9019 32.2422 58.6653 32.2058L70.1029 31.6569C70.8663 31.6204 71.515 32.2058 71.5517 32.9647C71.5879 33.7237 70.9991 34.3686 70.2362 34.405Z" fill="#407BFF"/>
</g>
<path d="M39.9369 30.9667L39.5301 29.4475C38.9534 27.2934 36.8899 25.9598 34.5547 26.2312L12.3633 28.8113C9.59485 29.1331 7.40315 31.5779 7.4677 34.272L8.727 86.8274C8.77111 88.6748 10.3462 89.9933 12.2444 89.7726L91.6419 80.5403C93.5402 80.3196 95.0432 78.6429 94.9991 76.7955L93.9107 31.3637C93.8666 29.5162 92.2915 28.1978 90.3933 28.4185L44.2882 33.7795C42.246 34.0168 40.4411 32.8502 39.9369 30.9667Z" fill="#407BFF"/>
<path opacity="0.3" d="M39.9369 30.9667L39.5301 29.4475C38.9534 27.2934 36.8899 25.9598 34.5547 26.2312L12.3633 28.8113C9.59485 29.1331 7.40315 31.5779 7.4677 34.272L8.727 86.8274C8.77111 88.6748 10.3462 89.9933 12.2444 89.7726L91.6419 80.5403C93.5402 80.3196 95.0432 78.6429 94.9991 76.7955L93.9107 31.3637C93.8666 29.5162 92.2915 28.1978 90.3933 28.4185L44.2882 33.7795C42.246 34.0168 40.4411 32.8502 39.9369 30.9667Z" fill="black"/>
</svg>
