<svg width="281" height="345" viewBox="0 0 281 345" fill="none" xmlns="http://www.w3.org/2000/svg">
<path d="M130.083 221.623L110.287 231.382C98.6134 237.136 84.4914 232.328 78.7426 220.643L45.4511 152.965C39.7033 141.279 44.5053 127.142 56.1787 121.387L75.975 111.628C87.6483 105.873 101.77 110.681 107.519 122.367L140.811 190.045C146.558 201.731 141.756 215.868 130.083 221.623Z" fill="#D7D8F7"/>
<path opacity="0.4" d="M130.083 221.401L110.287 231.16C98.6134 236.915 84.4914 232.106 78.7426 220.42L45.4511 152.743C39.7033 141.057 44.5053 126.92 56.1787 121.165L75.975 111.406C87.6483 105.652 101.77 110.459 107.519 122.145L140.811 189.823C146.558 201.509 141.756 215.646 130.083 221.401Z" fill="black"/>
<path d="M153.141 338.476C153.152 338.501 152.897 338.635 152.389 338.876C151.863 339.114 151.104 339.458 150.113 339.909C149.102 340.337 147.812 340.773 146.304 341.332C145.532 341.561 144.703 341.807 143.816 342.07C142.932 342.351 141.972 342.578 140.95 342.8C136.882 343.739 131.774 344.477 125.818 344.356C122.84 344.346 119.668 343.976 116.334 343.444C113.017 342.802 109.541 341.925 106.024 340.59C102.525 339.224 98.977 337.474 95.5299 335.23C92.1087 332.944 88.8454 330.132 85.8742 326.848C79.9416 320.295 75.1833 311.716 73.1816 301.907C72.1793 297.018 71.8743 291.836 72.4992 286.628C73.1061 281.421 74.7581 276.215 77.337 271.421C79.9108 266.62 83.3857 262.205 87.5769 258.462C91.771 254.736 96.6703 251.616 102.11 249.639C107.543 247.642 113.332 246.863 118.964 247.256C121.778 247.498 124.571 248.082 127.181 249.151C129.782 250.214 132.213 251.786 134.084 253.89C135.951 255.976 137.312 258.512 137.864 261.244C138.424 263.965 138.08 266.895 136.815 269.323C136.216 270.551 135.429 271.67 134.514 272.641C133.616 273.629 132.602 274.489 131.527 275.228C129.391 276.737 127.023 277.782 124.626 278.556C114.906 281.361 104.92 279.961 96.8839 276.266C88.7798 272.597 82.4658 266.678 78.6582 260.157C76.731 256.904 75.4108 253.519 74.5952 250.225C73.7816 246.931 73.3376 243.743 73.3028 240.752C73.1856 234.766 74.333 229.663 75.7307 225.722C77.1522 221.767 78.8638 218.969 80.0757 217.138C80.7056 216.236 81.247 215.592 81.5907 215.146C81.9423 214.707 82.1331 214.49 82.1539 214.507C82.1748 214.524 82.0268 214.772 81.7178 215.242C81.4178 215.717 80.9211 216.387 80.338 217.309C79.2204 219.18 77.6161 221.993 76.3029 225.92C75.0125 229.832 73.9743 234.865 74.172 240.728C74.2465 243.656 74.7224 246.769 75.5519 249.972C76.3833 253.177 77.7045 256.458 79.6039 259.595C83.3559 265.883 89.5269 271.578 97.4134 275.088C101.345 276.834 105.685 278.087 110.254 278.488C114.805 278.903 119.602 278.547 124.199 277.188C126.473 276.444 128.712 275.442 130.692 274.031C131.69 273.341 132.619 272.544 133.432 271.643C134.262 270.758 134.963 269.753 135.488 268.664C136.603 266.505 136.891 263.964 136.393 261.542C135.897 259.111 134.662 256.802 132.956 254.907C131.256 253.001 129.034 251.561 126.602 250.57C124.167 249.576 121.525 249.022 118.836 248.794C113.442 248.427 107.884 249.171 102.649 251.095C92.1703 254.984 83.6689 262.897 78.6791 272.138C76.1757 276.772 74.5754 281.771 73.9724 286.807C73.3535 291.841 73.6306 296.865 74.5853 301.619C76.4916 311.161 81.086 319.557 86.8348 325.985C89.7136 329.208 92.8776 331.974 96.1965 334.231C99.5462 336.448 103.004 338.19 106.422 339.563C109.856 340.903 113.26 341.8 116.515 342.47C119.789 343.03 122.909 343.435 125.844 343.485C131.714 343.688 136.775 343.047 140.823 342.206C141.84 342.009 142.796 341.807 143.679 341.551C144.566 341.314 145.396 341.093 146.168 340.887C147.679 340.378 148.977 339.992 150.002 339.612C151.015 339.227 151.79 338.93 152.327 338.725C152.853 338.537 153.13 338.451 153.141 338.476Z" fill="#263238"/>
<path d="M90.7327 197.046C90.7635 197.127 89.5774 197.59 87.7536 198.516C85.9297 199.438 83.4939 200.884 81.067 202.84C78.6452 204.803 76.719 206.883 75.4335 208.473C74.1451 210.062 73.4438 211.125 73.3712 211.079C73.3414 211.06 73.4875 210.776 73.7805 210.278C74.0676 209.777 74.5315 209.08 75.1454 208.248C76.3693 206.584 78.2836 204.43 80.7422 202.438C83.2048 200.453 85.7121 199.034 87.5946 198.187C88.5363 197.761 89.3142 197.454 89.8645 197.279C90.4129 197.097 90.7208 197.012 90.7327 197.046Z" fill="#263238"/>
<path d="M81.8252 210.434C81.8034 210.421 81.9703 210.1 82.4838 209.726C82.9865 209.368 83.9024 208.97 85.0567 209.164C86.1932 209.349 87.4558 210.294 87.9028 211.794C88.3657 213.292 87.6982 215.189 86.1912 216.17C85.4432 216.664 84.5193 216.847 83.6898 216.714C82.8593 216.585 82.1083 216.216 81.5401 215.701C80.9659 215.195 80.5666 214.538 80.4047 213.871C80.2299 213.205 80.2835 212.554 80.4285 212.003C80.7245 210.884 81.405 210.179 81.9117 209.824C82.4342 209.468 82.7858 209.406 82.7918 209.429C82.8107 209.472 82.4908 209.599 82.0348 209.983C81.5928 210.365 81.0077 211.059 80.7832 212.089C80.5269 213.095 80.7871 214.455 81.854 215.342C82.8534 216.239 84.5948 216.627 85.9081 215.735C87.2213 214.883 87.8233 213.212 87.4429 211.924C87.0783 210.607 85.9816 209.726 84.9832 209.523C83.962 209.304 83.0938 209.609 82.5901 209.897C82.0765 210.196 81.859 210.464 81.8252 210.434Z" fill="#263238"/>
<path d="M130.083 221.623L110.287 231.382C98.6134 237.136 84.4914 232.328 78.7426 220.643L45.4511 152.965C39.7033 141.279 44.5053 127.142 56.1787 121.387L75.975 111.628C87.6483 105.873 101.77 110.681 107.519 122.367L140.811 190.045C146.558 201.731 141.756 215.868 130.083 221.623Z" fill="#D7D8F7"/>
<path opacity="0.4" d="M130.083 221.401L110.287 231.16C98.6134 236.915 84.4914 232.106 78.7426 220.42L45.4511 152.743C39.7033 141.057 44.5053 126.92 56.1787 121.165L75.975 111.406C87.6483 105.652 101.77 110.459 107.519 122.145L140.811 189.823C146.558 201.509 141.756 215.646 130.083 221.401Z" fill="black"/>
<path d="M153.141 338.476C153.152 338.501 152.897 338.635 152.389 338.876C151.863 339.114 151.104 339.458 150.113 339.909C149.102 340.337 147.812 340.773 146.304 341.332C145.532 341.561 144.703 341.807 143.816 342.07C142.932 342.351 141.972 342.578 140.95 342.8C136.882 343.739 131.774 344.477 125.818 344.356C122.84 344.346 119.668 343.976 116.334 343.444C113.017 342.802 109.541 341.925 106.024 340.59C102.525 339.224 98.977 337.474 95.5299 335.23C92.1087 332.944 88.8454 330.132 85.8742 326.848C79.9416 320.295 75.1833 311.716 73.1816 301.907C72.1793 297.018 71.8743 291.836 72.4992 286.628C73.1061 281.421 74.7581 276.215 77.337 271.421C79.9108 266.62 83.3857 262.205 87.5769 258.462C91.771 254.736 96.6703 251.616 102.11 249.639C107.543 247.642 113.332 246.863 118.964 247.256C121.778 247.498 124.571 248.082 127.181 249.151C129.782 250.214 132.213 251.786 134.084 253.89C135.951 255.976 137.312 258.512 137.864 261.244C138.424 263.965 138.08 266.895 136.815 269.323C136.216 270.551 135.429 271.67 134.514 272.641C133.616 273.629 132.602 274.489 131.527 275.228C129.391 276.737 127.023 277.782 124.626 278.556C114.906 281.361 104.92 279.961 96.8839 276.266C88.7798 272.597 82.4658 266.678 78.6582 260.157C76.731 256.904 75.4108 253.519 74.5952 250.225C73.7816 246.931 73.3376 243.743 73.3028 240.752C73.1856 234.766 74.333 229.663 75.7307 225.722C77.1522 221.767 78.8638 218.969 80.0757 217.138C80.7056 216.236 81.247 215.592 81.5907 215.146C81.9423 214.707 82.1331 214.49 82.1539 214.507C82.1748 214.524 82.0268 214.772 81.7178 215.242C81.4178 215.717 80.9211 216.387 80.338 217.309C79.2204 219.18 77.6161 221.993 76.3029 225.92C75.0125 229.832 73.9743 234.865 74.172 240.728C74.2465 243.656 74.7224 246.769 75.5519 249.972C76.3833 253.177 77.7045 256.458 79.6039 259.595C83.3559 265.883 89.5269 271.578 97.4134 275.088C101.345 276.834 105.685 278.087 110.254 278.488C114.805 278.903 119.602 278.547 124.199 277.188C126.473 276.444 128.712 275.442 130.692 274.031C131.69 273.341 132.619 272.544 133.432 271.643C134.262 270.758 134.963 269.753 135.488 268.664C136.603 266.505 136.891 263.964 136.393 261.542C135.897 259.111 134.662 256.802 132.956 254.907C131.256 253.001 129.034 251.561 126.602 250.57C124.167 249.576 121.525 249.022 118.836 248.794C113.442 248.427 107.884 249.171 102.649 251.095C92.1703 254.984 83.6689 262.897 78.6791 272.138C76.1757 276.772 74.5754 281.771 73.9724 286.807C73.3535 291.841 73.6306 296.865 74.5853 301.619C76.4916 311.161 81.086 319.557 86.8348 325.985C89.7136 329.208 92.8776 331.974 96.1965 334.231C99.5462 336.448 103.004 338.19 106.422 339.563C109.856 340.903 113.26 341.8 116.515 342.47C119.789 343.03 122.909 343.435 125.844 343.485C131.714 343.688 136.775 343.047 140.823 342.206C141.84 342.009 142.796 341.807 143.679 341.551C144.566 341.314 145.396 341.093 146.168 340.887C147.679 340.378 148.977 339.992 150.002 339.612C151.015 339.227 151.79 338.93 152.327 338.725C152.853 338.537 153.13 338.451 153.141 338.476Z" fill="#263238"/>
<path d="M90.7327 197.046C90.7635 197.127 89.5774 197.59 87.7536 198.516C85.9297 199.438 83.4939 200.884 81.067 202.84C78.6452 204.803 76.719 206.883 75.4335 208.473C74.1451 210.062 73.4438 211.125 73.3712 211.079C73.3414 211.06 73.4875 210.776 73.7805 210.278C74.0676 209.777 74.5315 209.08 75.1454 208.248C76.3693 206.584 78.2836 204.43 80.7422 202.438C83.2048 200.453 85.7121 199.034 87.5946 198.187C88.5363 197.761 89.3142 197.454 89.8645 197.279C90.4129 197.097 90.7208 197.012 90.7327 197.046Z" fill="#263238"/>
<path d="M81.8252 210.434C81.8034 210.421 81.9703 210.1 82.4838 209.726C82.9865 209.368 83.9024 208.97 85.0567 209.164C86.1932 209.349 87.4558 210.294 87.9028 211.794C88.3657 213.292 87.6982 215.189 86.1912 216.17C85.4432 216.664 84.5193 216.847 83.6898 216.714C82.8593 216.585 82.1083 216.216 81.5401 215.701C80.9659 215.195 80.5666 214.538 80.4047 213.871C80.2299 213.205 80.2835 212.554 80.4285 212.003C80.7245 210.884 81.405 210.179 81.9117 209.824C82.4342 209.468 82.7858 209.406 82.7918 209.429C82.8107 209.472 82.4908 209.599 82.0348 209.983C81.5928 210.365 81.0077 211.059 80.7832 212.089C80.5269 213.095 80.7871 214.455 81.854 215.342C82.8534 216.239 84.5948 216.627 85.9081 215.735C87.2213 214.883 87.8233 213.212 87.4429 211.924C87.0783 210.607 85.9816 209.726 84.9832 209.523C83.962 209.304 83.0938 209.609 82.5901 209.897C82.0765 210.196 81.859 210.464 81.8252 210.434Z" fill="#263238"/>
<path d="M92.5676 115.6C90.6494 111.792 88.9656 108.38 88.9656 108.38C88.9656 108.38 96.121 103.982 93.0107 96.2838C89.9013 88.5847 81.2181 71.5526 81.2181 71.5526L64.2917 71.3945L54.6538 90.0575L72.7137 125.664C75.4475 131.055 81.978 133.278 87.4288 130.674C93.0613 127.982 95.3779 121.179 92.5676 115.6Z" fill="#FFBE9D"/>
<path d="M85.601 84.8971C85.8534 85.4261 85.6299 86.0596 85.1014 86.3122C84.5729 86.5648 83.9411 86.34 83.6888 85.811C83.4364 85.2819 83.6599 84.6495 84.1874 84.3969C84.7159 84.1443 85.3487 84.368 85.601 84.8971Z" fill="#263238"/>
<path d="M86.0292 83.4104C85.9656 83.5934 84.9712 83.3299 83.9152 83.7655C82.8533 84.1881 82.3228 85.0682 82.15 84.9817C82.0675 84.9449 82.0864 84.6565 82.3139 84.2617C82.5364 83.8719 82.9963 83.3935 83.6569 83.126C84.3166 82.8585 84.9801 82.8834 85.4113 83.0087C85.8484 83.134 86.0629 83.3279 86.0292 83.4104Z" fill="#263238"/>
<path d="M74.5179 90.1939C74.7702 90.723 74.5467 91.3564 74.0182 91.609C73.4907 91.8606 72.8579 91.6369 72.6056 91.1078C72.3533 90.5787 72.5778 89.9453 73.1043 89.6937C73.6338 89.4401 74.2665 89.6649 74.5179 90.1939Z" fill="#263238"/>
<path d="M74.6151 88.865C74.5515 89.048 73.5571 88.7845 72.5022 89.2201C71.4402 89.6427 70.9088 90.5238 70.7359 90.4363C70.6535 90.3995 70.6733 90.1101 70.8998 89.7163C71.1223 89.3265 71.5833 88.8482 72.2439 88.5796C72.9035 88.3121 73.5671 88.337 73.9972 88.4623C74.4343 88.5886 74.6489 88.7815 74.6151 88.865Z" fill="#263238"/>
<path d="M82.4807 95.7964C82.4509 95.7407 83.0589 95.3559 84.0652 94.7811C84.3205 94.6419 84.5619 94.4807 84.5241 94.26C84.4993 94.0243 84.2539 93.7687 83.9807 93.4972C83.4354 92.9274 82.8602 92.3268 82.2572 91.6973C81.0433 90.4114 79.9615 89.23 79.1975 88.3589C78.4306 87.4887 77.9807 86.9269 78.0283 86.8841C78.074 86.8403 78.6075 87.3217 79.434 88.1361C80.2605 88.9496 81.3781 90.0962 82.591 91.381C83.185 92.0195 83.7513 92.6271 84.2897 93.2059C84.5311 93.4813 84.8609 93.7677 84.9046 94.2341C84.9225 94.4688 84.7933 94.6966 84.6433 94.8139C84.4953 94.9382 84.3453 95.0038 84.2162 95.0675C83.1711 95.5707 82.5105 95.8521 82.4807 95.7964Z" fill="#263238"/>
<path d="M79.5452 98.3967C80.6657 98.5071 83.2406 98.7368 85.3406 97.7334C85.3406 97.7334 84.9343 100.217 82.3903 100.335C79.7488 100.456 79.5452 98.3967 79.5452 98.3967Z" fill="white"/>
<path d="M88.9706 108.314C88.9706 108.314 83.9649 110.777 77.4741 109.699C77.4741 109.699 82.5146 114.076 89.8607 110.186L88.9706 108.314Z" fill="#EB996E"/>
<path d="M46.5766 101.562L46.7206 101.487C46.2239 100.028 45.5554 98.1243 45.3706 97.1607C42.009 79.6125 54.3191 70.1602 57.0291 68.8654C59.9337 67.4771 64.256 63.4486 75.3392 67.6144C77.2217 68.3224 78.7754 69.2075 80.0678 70.185C83.0907 71.6698 85.3387 73.8228 86.6639 75.6217C88.2017 77.6852 88.6984 79.2157 88.608 79.2515C88.4689 79.3241 87.7695 77.917 86.1573 76.0305C85.3586 75.0857 84.2937 74.0346 82.9893 73.0471C86.3599 77.3561 86.3172 82.0091 86.3172 82.0091L84.5271 81.4542L72.2478 83.8539C71.7054 80.4876 68.6835 77.4317 67.1487 76.0693L67.0494 76.0384C70.2094 88.2782 58.4406 95.3299 58.4406 95.3299L68.0249 116.415C51.9896 120.257 46.5766 101.562 46.5766 101.562Z" fill="#263238"/>
<path d="M63.2069 107.417C62.437 108.807 60.5317 109.315 59.0476 108.751C57.5634 108.186 56.5273 106.751 56.1319 105.213C55.8925 104.281 55.8717 103.246 56.3366 102.403C56.8015 101.562 58.8866 100.694 59.7946 101.008L63.2069 107.417Z" fill="#FFBE9D"/>
<path d="M60.915 106.959C60.8763 106.857 60.47 106.976 59.87 106.86C59.2759 106.758 58.5061 106.331 58.2071 105.48C57.8832 104.637 58.1931 103.812 58.5786 103.349C58.96 102.872 59.3465 102.699 59.3107 102.596C59.2968 102.514 58.8031 102.51 58.22 102.996C57.6448 103.433 57.0935 104.587 57.5395 105.726C57.9379 106.882 59.1051 107.402 59.8263 107.362C60.5842 107.355 60.9577 107.03 60.915 106.959Z" fill="#EB996E"/>
<path d="M105.42 80.0858C105.42 80.0858 105.369 79.8919 105.297 79.512C105.223 79.1122 105.12 78.5524 104.986 77.8234C104.919 77.4505 104.845 77.0358 104.764 76.5794C104.661 76.1259 104.504 75.6406 104.36 75.1096C104.062 74.0485 103.753 72.8144 103.18 71.4997C102.224 68.8067 100.546 65.6881 98.0978 62.4621C95.6352 59.2529 92.2438 55.9961 87.8431 53.4105C83.4582 50.8528 78.0711 48.8708 72.0769 48.5188C70.5809 48.483 69.058 48.3547 67.5153 48.5277C66.7454 48.5914 65.9626 48.6073 65.1848 48.7117C64.41 48.844 63.6302 48.9762 62.8444 49.1105C62.453 49.1841 62.0536 49.2288 61.6652 49.3273L60.5 49.6495C59.7241 49.8742 58.9294 50.0612 58.1526 50.3197C56.6327 50.9323 55.0433 51.4425 53.5731 52.2709C52.0373 52.97 50.6296 53.9356 49.1743 54.8574C48.471 55.3537 47.8064 55.9135 47.115 56.4426C46.4067 56.9537 45.7759 57.5624 45.1431 58.1749C43.814 59.3385 42.6954 60.7297 41.5113 62.0812C40.4702 63.547 39.3656 64.991 38.5112 66.6169L37.8218 67.8082L37.2437 69.0633L36.6665 70.3262C36.4639 70.7439 36.2831 71.1715 36.146 71.618C35.843 72.4981 35.538 73.3832 35.2331 74.2702C35.0155 75.1831 34.797 76.1 34.5774 77.0199C33.8373 80.7292 33.6575 84.5967 34.0589 88.4641C34.5625 92.3206 35.6304 96.0439 37.2079 99.4817C37.6341 100.326 38.0583 101.167 38.4814 102.006C38.9841 102.798 39.4848 103.588 39.9835 104.374C40.2199 104.777 40.4931 105.152 40.7881 105.511L41.6414 106.606L42.4948 107.694L43.4415 108.693C44.6494 110.077 46.058 111.227 47.41 112.412C48.8743 113.453 50.2849 114.548 51.8465 115.371C52.6045 115.821 53.3595 116.266 54.1661 116.6C54.9618 116.954 55.7377 117.345 56.5363 117.665C58.1655 118.225 59.7589 118.838 61.4149 119.162C63.0371 119.627 64.702 119.756 66.3222 119.999C67.1378 120.071 67.9544 120.069 68.762 120.108L69.97 120.152C70.3713 120.157 70.7697 120.108 71.168 120.089C71.9637 120.037 72.7534 119.985 73.5372 119.935C74.318 119.855 75.082 119.689 75.8469 119.573C77.3876 119.384 78.839 118.904 80.2863 118.524C86.0361 116.79 90.8183 113.614 94.4918 110.108C98.1744 106.573 100.72 102.619 102.373 98.9258C104.008 95.2195 104.919 91.7975 105.226 88.9564C105.48 87.5452 105.495 86.2723 105.539 85.1715C105.556 84.6215 105.597 84.1124 105.592 83.648C105.566 83.1856 105.542 82.7649 105.52 82.387C105.483 81.6471 105.453 81.0783 105.432 80.6735C105.415 80.2857 105.42 80.0858 105.42 80.0858C105.42 80.0858 105.451 80.2817 105.486 80.6666C105.518 81.0723 105.565 81.6411 105.626 82.38C105.655 82.7589 105.686 83.1806 105.722 83.644C105.736 84.1104 105.704 84.6205 105.694 85.1735C105.665 86.2793 105.667 87.5592 105.427 88.9803C105.149 91.8413 104.261 95.2951 102.639 99.0422C100.998 102.776 98.4515 106.782 94.7481 110.37C91.0537 113.928 86.2288 117.159 80.4155 118.931C78.9522 119.322 77.484 119.809 75.9254 120.006C75.1525 120.127 74.3787 120.296 73.5879 120.378C72.7942 120.432 71.9945 120.487 71.1899 120.541C70.7866 120.561 70.3832 120.612 69.9769 120.607L68.7531 120.566C67.9355 120.529 67.108 120.532 66.2815 120.462C64.6394 120.22 62.9527 120.092 61.3076 119.624C59.6288 119.298 58.0125 118.682 56.3605 118.116C55.5499 117.793 54.7631 117.399 53.9565 117.041C53.1379 116.703 52.372 116.253 51.6032 115.799C50.0187 114.965 48.5872 113.859 47.1011 112.803C45.7282 111.605 44.2997 110.439 43.0729 109.038L42.1123 108.025L41.2461 106.923L40.3798 105.813C40.0808 105.449 39.8027 105.07 39.5633 104.661C39.0566 103.863 38.549 103.063 38.0384 102.258C37.6093 101.408 37.1771 100.555 36.745 99.6985C35.1427 96.2119 34.0579 92.434 33.5483 88.5228C33.14 84.6007 33.3228 80.6755 34.0768 76.9135C34.3003 75.9807 34.5228 75.0509 34.7433 74.125C35.0532 73.2251 35.3632 72.3281 35.6702 71.435C35.8092 70.9826 35.993 70.549 36.1987 70.1253L36.7848 68.8445L37.3728 67.5726L38.0722 66.3643C38.9414 64.7175 40.0619 63.2526 41.1199 61.7689C42.3209 60.3986 43.4573 58.9904 44.8064 57.813C45.4491 57.1924 46.0908 56.5778 46.8081 56.0597C47.5104 55.5247 48.1849 54.9589 48.8982 54.4567C50.3743 53.5239 51.8038 52.5493 53.3615 51.8432C54.8535 51.0069 56.4648 50.4918 58.0056 49.8762C58.7933 49.6157 59.598 49.4267 60.3857 49.202L61.5669 48.8788C61.9613 48.7793 62.3656 48.7356 62.7619 48.662C63.5576 48.5287 64.3484 48.3964 65.1321 48.2642C65.9199 48.1608 66.7116 48.1468 67.4914 48.0842C69.0531 47.9141 70.5948 48.0474 72.1077 48.0892C78.1724 48.4651 83.6142 50.4898 88.0308 53.0943C92.4643 55.7266 95.8677 59.0322 98.3283 62.285C100.774 65.5538 102.436 68.7082 103.369 71.4271C103.93 72.7547 104.226 73.9998 104.509 75.0688C104.646 75.6048 104.795 76.0941 104.89 76.5505C104.962 77.01 105.029 77.4276 105.088 77.8035C105.201 78.5375 105.287 79.1013 105.349 79.5031C105.404 79.8879 105.42 80.0858 105.42 80.0858Z" fill="#263238"/>
<path d="M48.2525 78.1697C49.6154 77.4298 50.5939 76.0187 50.8095 74.4813C51.0251 72.9438 50.4718 71.3179 49.3631 70.231C47.3148 68.2222 43.7614 68.4101 41.4627 70.1275C39.164 71.844 37.9769 74.717 37.5775 77.5601C37.3471 79.201 37.352 80.9224 37.9699 82.4598C38.5878 83.9972 39.9061 85.3228 41.5372 85.6083C43.3551 85.9265 45.1988 84.9062 46.372 83.4801C47.5452 82.0541 48.177 80.27 48.787 78.5267" fill="#263238"/>
<path d="M90.0286 64.3605C89.9591 64.4371 88.6568 63.1573 86.2637 61.4796C85.0736 60.6333 83.5805 59.7353 81.8659 58.8533C80.1374 58 78.1785 57.1796 76.0526 56.5202C73.9198 55.8838 71.8347 55.4761 69.9244 55.2225C68.0091 55.0017 66.2697 54.9162 64.8104 54.957C61.8889 55.0186 60.0968 55.3577 60.0809 55.2553C60.0749 55.2205 60.518 55.121 61.3286 54.9699C61.7329 54.8883 62.2306 54.8048 62.8147 54.7541C63.3968 54.6974 64.0604 54.6019 64.7985 54.591C66.2727 54.5025 68.0359 54.5502 69.98 54.7481C71.9201 54.9788 74.039 55.3786 76.2036 56.024C78.3603 56.6923 80.3431 57.5386 82.0835 58.4276C83.809 59.3455 85.3011 60.2872 86.4773 61.1813C87.0852 61.6009 87.5829 62.0494 88.0359 62.4214C88.4928 62.7893 88.8594 63.1354 89.1505 63.4277C89.7396 64.0055 90.0535 64.3347 90.0286 64.3605Z" fill="#455A64"/>
<path d="M93.2252 69.7395C93.0802 69.7733 92.7872 68.9549 92.2309 68.0678C91.6835 67.1748 91.0805 66.5493 91.1749 66.4339C91.2533 66.3225 92.0679 66.8168 92.6699 67.7943C93.2779 68.7679 93.3603 69.7176 93.2252 69.7395Z" fill="#455A64"/>
<path d="M38.6831 77.6304C38.7695 77.6185 38.7964 79.0127 38.0394 81.0345C37.7037 82.0439 37.2209 83.2322 37.1185 84.5916C37.0669 85.2679 37.1543 85.9769 37.4305 86.6462C37.7056 87.3065 38.1894 87.9181 38.8679 88.2174C39.5404 88.5277 40.3163 88.5098 41.0067 88.3C41.7021 88.0921 42.3279 87.7272 42.8573 87.3045C43.9103 86.4393 44.6206 85.3743 45.0855 84.4475C46.0094 82.553 45.9965 81.1797 46.1008 81.1996C46.1306 81.2006 46.1604 81.5347 46.0978 82.1363C46.0313 82.735 45.8594 83.6061 45.4173 84.6026C44.9723 85.5921 44.2749 86.7208 43.1594 87.6745C42.5971 88.1409 41.9276 88.5466 41.1527 88.7863C40.3878 89.0279 39.4689 89.0657 38.6533 88.6888C37.8288 88.3239 37.2646 87.5889 36.9626 86.8411C36.6566 86.0863 36.5741 85.2828 36.6447 84.5559C36.7857 83.09 37.3232 81.8987 37.6977 80.9082C38.092 79.9197 38.3583 79.1102 38.4855 78.5334C38.6156 77.9586 38.6434 77.6285 38.6831 77.6304Z" fill="#263238"/>
<path d="M55.2629 134.077C55.2629 134.077 99.0109 214.389 106.232 223.319L165.271 197.005L129.482 135.536C122.896 124.224 111.207 116.71 98.1576 115.82C98.0185 115.81 97.8784 115.801 97.7383 115.793C83.7206 114.944 53.139 130.166 55.2629 134.077Z" fill="#D7D8F7"/>
<path d="M147.38 166.28C147.383 166.287 147.316 166.324 147.179 166.391C147.02 166.465 146.82 166.56 146.572 166.676C146.002 166.933 145.211 167.288 144.201 167.742C142.094 168.668 139.081 169.994 135.317 171.649C131.513 173.304 126.953 175.288 121.811 177.527C119.233 178.644 116.509 179.824 113.663 181.058C112.951 181.366 112.231 181.678 111.504 181.992C110.724 182.322 109.741 182.275 108.991 181.839C108.228 181.428 107.628 180.805 107.115 180.136C106.602 179.46 106.178 178.732 105.822 177.941L105.838 177.973C103.258 173.75 100.622 169.156 98.0672 164.332C96.0526 160.534 94.185 156.772 92.4654 153.101C91.6062 151.263 90.7787 149.457 89.9999 147.661C89.2349 145.864 88.5853 144.015 88.4313 142.109C88.2555 140.21 88.777 138.279 89.8359 136.811C90.877 135.327 92.232 134.205 93.5661 133.221C96.2582 131.271 98.9513 129.716 101.523 128.55C106.665 126.186 111.186 125.228 114.295 124.78C115.857 124.567 117.078 124.47 117.905 124.431C118.297 124.418 118.608 124.407 118.848 124.399C119.061 124.395 119.169 124.397 119.17 124.406C119.17 124.415 119.063 124.431 118.851 124.452C118.612 124.473 118.303 124.5 117.913 124.535C117.09 124.607 115.876 124.737 114.326 124.979C111.24 125.486 106.76 126.493 101.678 128.882C99.1371 130.06 96.4768 131.62 93.8224 133.566C92.5092 134.545 91.1959 135.651 90.2114 137.069C89.2131 138.475 88.7392 140.259 88.9081 142.072C89.0601 143.889 89.6939 145.692 90.4568 147.468C91.2326 149.246 92.0671 151.055 92.9264 152.886C94.6479 156.548 96.5155 160.3 98.5261 164.091C101.075 168.905 103.701 173.492 106.268 177.713L106.275 177.724L106.285 177.746C106.96 179.201 107.897 180.654 109.221 181.406C109.883 181.783 110.647 181.822 111.338 181.541C112.066 181.229 112.786 180.921 113.499 180.616C116.349 179.395 119.075 178.229 121.656 177.125C126.812 174.928 131.384 172.98 135.198 171.355C138.985 169.758 142.017 168.48 144.137 167.586C145.16 167.165 145.962 166.834 146.539 166.597C146.794 166.496 147 166.416 147.164 166.351C147.304 166.297 147.377 166.274 147.38 166.28Z" fill="#263238"/>
<g opacity="0.7">
<path d="M103.659 144.12C103.659 145.641 102.427 146.875 100.907 146.875C99.3873 146.875 98.1555 145.641 98.1555 144.12C98.1555 142.598 99.3873 141.365 100.907 141.365C102.427 141.365 103.659 142.598 103.659 144.12Z" fill="white"/>
</g>
<g opacity="0.7">
<path d="M109.162 155.943C109.162 157.465 107.931 158.698 106.411 158.698C104.891 158.698 103.659 157.465 103.659 155.943C103.659 154.422 104.891 153.188 106.411 153.188C107.931 153.188 109.162 154.423 109.162 155.943Z" fill="white"/>
</g>
<g opacity="0.7">
<path d="M113.02 170.204C114.539 170.204 115.771 168.97 115.771 167.449C115.771 165.928 114.539 164.694 113.02 164.694C111.5 164.694 110.268 165.928 110.268 167.449C110.268 168.97 111.5 170.204 113.02 170.204Z" fill="white"/>
</g>
<path d="M121.218 134.725C121.249 134.788 120.498 135.237 119.248 135.893C117.998 136.549 116.248 137.412 114.288 138.302C112.326 139.192 110.526 139.942 109.209 140.451C107.892 140.959 107.06 141.23 107.033 141.165C107.006 141.097 107.787 140.707 109.066 140.113C110.529 139.446 112.214 138.678 114.075 137.83C115.937 136.989 117.624 136.226 119.089 135.564C120.378 134.992 121.186 134.66 121.218 134.725Z" fill="#263238"/>
<path d="M128.396 146.357C128.422 146.426 127.549 146.819 126.129 147.425C124.538 148.103 122.659 148.903 120.583 149.787C118.514 150.688 116.641 151.504 115.056 152.195C113.64 152.809 112.755 153.173 112.723 153.108C112.693 153.045 113.522 152.565 114.901 151.863C116.28 151.162 118.212 150.246 120.38 149.311C122.547 148.378 124.54 147.603 125.997 147.084C127.453 146.564 128.372 146.292 128.396 146.357Z" fill="#263238"/>
<path d="M132.803 159.305C132.859 159.438 130.017 160.817 126.458 162.387C122.898 163.958 119.963 165.125 119.904 164.995C119.844 164.864 122.684 163.485 126.25 161.913C129.813 160.342 132.747 159.174 132.803 159.305Z" fill="#263238"/>
<path d="M68.4432 124.702C68.4432 124.702 67.5978 122.366 70.0227 120.358C72.4466 118.351 91.5594 113.594 91.5594 113.594C91.5594 113.594 96.8045 112.824 98.1555 115.821L68.4432 124.702Z" fill="#D7D8F7"/>
<path opacity="0.2" d="M106.231 194.045L151.331 173.066L148.92 168.924L106.231 194.045Z" fill="black"/>
<g opacity="0.2">
<path d="M97.6926 116.711C97.7105 116.735 97.4085 117.021 96.7796 117.434C96.1528 117.846 95.1872 118.361 93.9326 118.836C92.6799 119.317 91.1511 119.756 89.4653 120.253C87.7766 120.747 85.9159 121.281 83.948 121.793C80.0132 122.829 76.3823 123.522 73.73 123.822C72.4038 123.976 71.326 124.05 70.5809 124.078C69.8349 124.098 69.4226 124.092 69.4207 124.056C69.4187 124.02 69.827 123.958 70.5651 123.877C71.3031 123.787 72.369 123.659 73.6803 123.46C76.3049 123.068 79.896 122.324 83.8169 121.293C85.7669 120.763 87.6255 120.259 89.3342 119.796C91.0299 119.323 92.5587 118.923 93.8074 118.493C96.3237 117.655 97.6459 116.638 97.6926 116.711Z" fill="black"/>
</g>
<g opacity="0.2">
<path d="M75.2458 123.129C75.1683 123.246 74.2038 122.386 74.0836 120.897C73.9455 119.41 74.7471 118.396 74.8435 118.499C74.9756 118.571 74.47 119.559 74.5991 120.853C74.6955 122.149 75.364 123.036 75.2458 123.129Z" fill="black"/>
</g>
<g opacity="0.2">
<path d="M82.1659 122.329C82.0993 122.448 80.9261 121.61 80.4155 119.989C79.887 118.373 80.3539 117.009 80.4761 117.067C80.6281 117.093 80.4245 118.372 80.9083 119.831C81.3632 121.298 82.2732 122.22 82.1659 122.329Z" fill="black"/>
</g>
<g opacity="0.2">
<path d="M89.4475 119.566C89.2975 119.594 89.0104 118.416 88.2634 117.162C87.5312 115.898 86.6441 115.075 86.7415 114.958C86.814 114.845 87.9177 115.54 88.7094 116.901C89.5111 118.253 89.5816 119.558 89.4475 119.566Z" fill="black"/>
</g>
<path d="M154.08 200.464C154.08 200.464 246.238 218.554 248.178 228.747C250.117 238.941 246.166 329.02 246.166 329.02L219.545 329.552L216.66 251.077L106.232 222.174L154.08 200.464Z" fill="#D7D8F7"/>
<path opacity="0.2" d="M154.08 200.464C154.08 200.464 246.238 218.554 248.178 228.747C250.117 238.941 246.166 329.02 246.166 329.02L219.545 329.552L216.66 251.077L106.232 222.174L154.08 200.464Z" fill="black"/>
<path d="M247.017 307.958L247.121 326.376C247.121 326.376 262.935 323.174 261.643 329.554C261.107 332.194 220.441 344.231 219.818 343.663L219.106 317.628L247.017 307.958Z" fill="#D7D8F7"/>
<path opacity="0.4" d="M247.017 307.958L247.121 326.376C247.121 326.376 262.935 323.174 261.643 329.554C261.107 332.194 220.441 344.231 219.818 343.663L219.106 317.628L247.017 307.958Z" fill="black"/>
<path d="M260.702 330.376C260.646 330.403 260.549 329.725 259.766 328.909C259.379 328.508 258.811 328.101 258.075 327.807C257.341 327.512 256.431 327.368 255.427 327.377C251.396 327.64 245.786 328.687 239.883 330.628C233.958 332.566 228.913 335.154 225.396 337.22C223.644 338.267 222.254 339.166 221.303 339.8C220.357 340.442 219.822 340.784 219.801 340.755C219.78 340.726 220.274 340.329 221.188 339.635C222.106 338.948 223.47 337.999 225.207 336.907C228.693 334.751 233.752 332.089 239.721 330.136C245.685 328.181 251.299 327.187 255.429 327.012C256.469 327.027 257.419 327.202 258.186 327.542C258.951 327.878 259.53 328.331 259.913 328.774C260.305 329.213 260.499 329.636 260.602 329.922C260.705 330.21 260.713 330.374 260.702 330.376Z" fill="#263238"/>
<path d="M246.973 312.942C246.988 312.975 246.625 313.18 245.953 313.523C245.283 313.868 244.3 314.342 243.077 314.909C240.632 316.045 237.214 317.529 233.38 319.019C229.543 320.509 226.02 321.722 223.45 322.535C222.164 322.941 221.12 323.255 220.392 323.454C219.665 323.653 219.259 323.748 219.248 323.714C219.237 323.68 219.623 323.521 220.331 323.262C221.142 322.971 222.146 322.612 223.333 322.188C225.869 321.287 229.364 320.023 233.192 318.536C237.018 317.048 240.45 315.621 242.929 314.574C244.091 314.086 245.074 313.673 245.869 313.339C246.566 313.053 246.958 312.909 246.973 312.942Z" fill="#263238"/>
<path d="M230.307 323.452C230.283 323.438 230.327 323.283 230.55 323.116C230.767 322.952 231.188 322.824 231.676 322.96C231.916 323.03 232.172 323.167 232.378 323.403C232.578 323.645 232.702 323.961 232.72 324.302C232.759 324.974 232.41 325.735 231.705 326.117C231.011 326.481 230.182 326.409 229.63 325.992C229.357 325.787 229.158 325.489 229.097 325.182C229.032 324.88 229.068 324.595 229.148 324.36C229.311 323.884 229.655 323.605 229.914 323.52C230.178 323.433 230.329 323.486 230.328 323.513C230.331 323.556 230.191 323.579 230.002 323.701C229.817 323.819 229.588 324.076 229.5 324.462C229.411 324.845 229.488 325.331 229.911 325.606C230.306 325.885 230.953 325.932 231.462 325.659C231.965 325.395 232.255 324.812 232.244 324.32C232.248 323.807 231.928 323.445 231.561 323.307C231.195 323.162 230.854 323.206 230.649 323.291C230.439 323.378 230.339 323.479 230.307 323.452Z" fill="#263238"/>
<path d="M224.664 342.831C224.523 342.807 224.626 341.482 224.894 339.872C225.162 338.261 225.494 336.975 225.634 336.998C225.775 337.022 225.672 338.347 225.404 339.958C225.137 341.568 224.805 342.855 224.664 342.831Z" fill="#263238"/>
<path d="M228.734 341.669C228.594 341.641 228.806 339.964 229.21 337.922C229.613 335.879 230.053 334.246 230.193 334.274C230.333 334.302 230.121 335.98 229.717 338.022C229.314 340.063 228.874 341.697 228.734 341.669Z" fill="#263238"/>
<path d="M233.133 340.45C232.992 340.424 233.206 338.618 233.608 336.416C234.011 334.214 234.452 332.45 234.593 332.475C234.733 332.501 234.52 334.307 234.118 336.51C233.714 338.712 233.274 340.476 233.133 340.45Z" fill="#263238"/>
<path d="M238.182 338.932C238.041 338.909 238.253 336.986 238.657 334.639C239.06 332.292 239.5 330.41 239.641 330.434C239.782 330.458 239.57 332.38 239.166 334.727C238.763 337.074 238.323 338.956 238.182 338.932Z" fill="#263238"/>
<path d="M242.96 337.451C242.819 337.428 243.032 335.505 243.435 333.159C243.838 330.812 244.278 328.93 244.419 328.954C244.56 328.978 244.348 330.9 243.945 333.247C243.542 335.593 243.101 337.476 242.96 337.451Z" fill="#263238"/>
<path d="M248.168 335.538C248.028 335.512 248.241 333.777 248.644 331.665C249.047 329.552 249.488 327.861 249.628 327.888C249.768 327.915 249.555 329.649 249.152 331.761C248.749 333.875 248.309 335.565 248.168 335.538Z" fill="#263238"/>
<path d="M253.378 333.573C253.239 333.541 253.452 332.067 253.855 330.281C254.258 328.494 254.697 327.071 254.836 327.103C254.975 327.135 254.761 328.609 254.359 330.396C253.956 332.182 253.517 333.605 253.378 333.573Z" fill="#263238"/>
<path d="M175.135 327.74C175.34 328.117 172.092 330.281 167.882 332.573C163.67 334.865 160.091 336.416 159.886 336.039C159.681 335.662 162.929 333.499 167.141 331.207C171.351 328.916 174.931 327.364 175.135 327.74Z" fill="#263238"/>
<path d="M221.358 110.641L221.322 110.58C226.439 108.378 232.067 105.824 234.974 104.078C240.966 100.479 240.651 99.9371 240.114 99.3105C238.671 97.6259 229.335 105.241 230.393 102.44C231.452 99.6397 242.892 94.4556 241.31 92.7571C239.248 90.5434 229.623 98.696 228.757 99.3255C227.915 99.9371 226.953 98.7238 227.763 98.1977C228.93 97.441 240.993 89.186 238.989 86.9932C237.879 85.778 235.884 87.9777 235.884 87.9777C235.884 87.9777 225.166 96.533 224.255 95.465C223.33 94.382 229.453 89.1472 231.642 87.5282C233.806 85.9291 233.926 84.2485 232.422 83.8766C231.397 83.624 224.574 88.4242 222.447 90.076C220.319 91.7278 214.563 96.362 215.544 91.7676C216.525 87.1712 215.548 83.2699 214.551 82.3978C213.554 81.5257 211.978 82.5987 212.298 84.0218C212.556 85.1723 212.392 87.2229 212.207 88.7584C212.053 90.0253 211.694 91.2604 211.127 92.403C210.463 93.7346 209.85 94.8355 209.305 95.7593C209.305 95.7593 207.737 98.1938 208.494 100.657C209.251 103.12 218.146 111.803 218.146 111.803L221.358 110.641Z" fill="#D7D8F7"/>
<g opacity="0.7">
<path d="M221.358 110.641L221.322 110.58C226.439 108.378 232.067 105.824 234.974 104.078C240.966 100.479 240.651 99.9371 240.114 99.3105C238.671 97.6259 229.335 105.241 230.393 102.44C231.452 99.6397 242.892 94.4556 241.31 92.7571C239.248 90.5434 229.623 98.696 228.757 99.3255C227.915 99.9371 226.953 98.7238 227.763 98.1977C228.93 97.441 240.993 89.186 238.989 86.9932C237.879 85.778 235.884 87.9777 235.884 87.9777C235.884 87.9777 225.166 96.533 224.255 95.465C223.33 94.382 229.453 89.1472 231.642 87.5282C233.806 85.9291 233.926 84.2485 232.422 83.8766C231.397 83.624 224.574 88.4242 222.447 90.076C220.319 91.7278 214.563 96.362 215.544 91.7676C216.525 87.1712 215.548 83.2699 214.551 82.3978C213.554 81.5257 211.978 82.5987 212.298 84.0218C212.556 85.1723 212.392 87.2229 212.207 88.7584C212.053 90.0253 211.694 91.2604 211.127 92.403C210.463 93.7346 209.85 94.8355 209.305 95.7593C209.305 95.7593 207.737 98.1938 208.494 100.657C209.251 103.12 218.146 111.803 218.146 111.803L221.358 110.641Z" fill="#999999"/>
</g>
<path d="M105.188 117.53C107.25 119.078 165.007 121.052 165.007 121.052L202.688 99.8066L217.756 114.234C217.756 114.234 173.772 143.858 168.874 144.89C163.975 145.923 128.266 144.89 128.266 144.89L105.188 117.53Z" fill="#D7D8F7"/>
<path d="M203.35 100.663L216.359 114.436C217.197 115.323 218.553 115.474 219.564 114.791L219.652 114.732C220.934 113.867 221.129 112.056 220.062 110.937L206.965 97.2232C206.175 96.3958 204.923 96.2129 203.93 96.7787C202.523 97.5792 202.239 99.4866 203.35 100.663Z" fill="#D7D8F7"/>
<path opacity="0.5" d="M203.35 100.663L216.359 114.436C217.197 115.323 218.553 115.474 219.564 114.791L219.652 114.732C220.934 113.867 221.129 112.056 220.062 110.937L206.965 97.2232C206.175 96.3958 204.923 96.2129 203.93 96.7787C202.523 97.5792 202.239 99.4866 203.35 100.663Z" fill="#999999"/>
<path d="M169.011 144.86C168.993 144.886 168.676 144.702 168.149 144.305C167.619 143.91 166.895 143.279 166.102 142.399C164.513 140.661 162.715 137.763 162.058 134.164C161.405 130.564 162.067 127.216 162.943 125.03C163.376 123.926 163.832 123.08 164.187 122.524C164.542 121.967 164.773 121.684 164.799 121.701C164.886 121.751 164.05 122.959 163.286 125.156C162.516 127.33 161.935 130.584 162.568 134.071C163.203 137.557 164.893 140.397 166.379 142.159C167.867 143.947 169.074 144.782 169.011 144.86Z" fill="#263238"/>
<path d="M212.833 109.911C212.843 109.926 212.69 110.057 212.389 110.291C212.039 110.556 211.598 110.889 211.057 111.298C209.894 112.165 208.195 113.395 206.081 114.896C201.853 117.898 195.947 121.954 189.315 126.268C182.679 130.581 176.576 134.334 172.117 136.98C169.887 138.303 168.074 139.357 166.81 140.068C166.216 140.398 165.733 140.665 165.35 140.878C165.013 141.058 164.832 141.145 164.822 141.129C164.813 141.114 164.977 140.997 165.296 140.788C165.667 140.554 166.133 140.258 166.707 139.895C167.999 139.096 169.767 138.003 171.926 136.667C176.334 133.942 182.401 130.144 189.032 125.835C195.659 121.524 201.592 117.519 205.871 114.596C207.968 113.164 209.685 111.992 210.939 111.135C211.504 110.758 211.964 110.45 212.328 110.207C212.649 109.999 212.822 109.897 212.833 109.911Z" fill="#263238"/>
<path d="M164.83 140.485C164.824 140.628 157.199 140.443 147.8 140.073C138.399 139.702 130.783 139.285 130.789 139.142C130.795 138.999 138.419 139.183 147.82 139.554C157.219 139.925 164.836 140.342 164.83 140.485Z" fill="#263238"/>
<g opacity="0.2">
<path d="M138.645 145.145C136.65 139.021 132.792 132.37 128.957 127.198C125.122 122.026 115.521 117.964 109.092 118.207C118.266 122.362 130.391 134.803 134.792 145.145H138.645Z" fill="black"/>
</g>
<path d="M230.478 193.621L195.908 231.905L176.603 218.277L208.427 180.292L124.496 224.679C116.405 228.86 106.463 226.13 101.637 218.4C96.1051 209.539 99.5055 197.832 108.921 193.322L199.604 149.885C212.77 143.578 228.553 147.43 237.341 159.097C245.929 170.497 241.41 182.487 230.478 193.621Z" fill="#D7D8F7"/>
<path d="M216.864 169.777C216.858 169.78 216.824 169.721 216.765 169.604C216.698 169.465 216.614 169.293 216.511 169.08C216.305 168.612 215.947 167.937 215.371 167.143C214.813 166.342 213.926 165.461 212.658 164.858C211.389 164.289 209.676 164.08 207.98 164.642L207.995 164.635C197.634 170.062 180.41 179.083 160.904 189.3C145.046 197.531 130.691 204.981 120.267 210.39C115.078 213.055 110.869 215.217 107.925 216.729C106.486 217.456 105.358 218.026 104.558 218.43C104.19 218.609 103.899 218.751 103.676 218.86C103.476 218.955 103.372 218.999 103.367 218.991C103.363 218.983 103.459 218.924 103.651 218.813C103.868 218.693 104.152 218.536 104.509 218.337C105.298 217.913 106.412 217.315 107.832 216.551C110.758 215.005 114.941 212.793 120.098 210.066C130.504 204.621 144.834 197.124 160.666 188.841C180.215 178.707 197.476 169.758 207.859 164.375L207.869 164.37L207.874 164.368C209.683 163.791 211.437 164.041 212.753 164.651C214.06 165.298 214.951 166.224 215.497 167.052C216.062 167.873 216.401 168.566 216.584 169.048C216.673 169.269 216.745 169.447 216.802 169.59C216.85 169.711 216.87 169.774 216.864 169.777Z" fill="#263238"/>
<path d="M221.032 164.628C221.143 164.718 218.174 168.569 214.402 173.228C210.629 177.889 207.481 181.593 207.37 181.503C207.259 181.412 210.227 177.562 214 172.901C217.773 168.242 220.921 164.538 221.032 164.628Z" fill="#263238"/>
<path d="M213.4 212.57L194.999 233.756C194.999 233.756 205.497 246.167 203.752 247.63C202.007 249.093 172.876 223.083 172.876 223.083L191.983 198.685L213.4 212.57Z" fill="#D7D8F7"/>
<path opacity="0.4" d="M213.4 212.57L194.999 233.756C194.999 233.756 205.497 246.167 203.752 247.63C202.007 249.093 172.876 223.083 172.876 223.083L191.983 198.685L213.4 212.57Z" fill="black"/>
<path d="M208.757 218.287C208.688 218.412 203.519 215.687 197.212 212.2C190.904 208.713 185.846 205.785 185.916 205.661C185.984 205.536 191.153 208.26 197.462 211.748C203.769 215.234 208.826 218.161 208.757 218.287Z" fill="#263238"/>
<path d="M184.499 218.778C184.535 218.811 184.399 218.96 184.264 219.273C184.127 219.582 184.024 220.079 184.132 220.668C184.245 221.242 184.592 221.94 185.26 222.287C185.917 222.655 186.854 222.465 187.503 221.861C188.158 221.26 188.421 220.34 188.106 219.656C187.813 218.961 187.146 218.559 186.583 218.401C186.005 218.248 185.503 218.309 185.184 218.423C184.861 218.532 184.702 218.656 184.672 218.618C184.656 218.602 184.771 218.42 185.104 218.238C185.43 218.054 185.994 217.918 186.668 218.045C187.319 218.18 188.134 218.59 188.544 219.466C188.979 220.345 188.643 221.534 187.855 222.241C187.089 222.971 185.878 223.212 185.038 222.709C184.198 222.231 183.855 221.384 183.771 220.724C183.698 220.042 183.878 219.49 184.087 219.179C184.295 218.862 184.485 218.761 184.499 218.778Z" fill="#263238"/>
<path opacity="0.2" d="M183.92 193.325L207.77 180.712L220.125 165.748L183.92 193.325Z" fill="black"/>
<path d="M256.914 84.7832C256.88 84.8081 256.84 84.825 256.804 84.8485L58.1366 222.494C58.1254 222.495 58.1254 222.495 58.115 222.507L58.0622 222.545C58.019 222.571 57.9661 222.609 57.9123 222.635C57.6237 222.816 57.2993 222.966 56.9602 223.06C56.5999 223.18 56.2251 223.255 55.8234 223.287C54.609 223.386 53.1949 223.109 51.6782 222.38C46.4393 219.902 41.8113 213.213 41.3406 207.44C41.156 205.178 41.6394 203.4 42.5967 202.211C42.8608 201.875 43.1747 201.592 43.5145 201.362L240.261 65.0522L242.32 63.6279L242.323 63.6333C242.327 63.6309 242.329 63.6286 242.332 63.6262C243.863 62.5486 246.114 62.5239 248.721 63.7394C253.972 66.2312 258.613 72.9311 259.084 78.7025C259.319 81.5715 258.477 83.7037 256.914 84.7832Z" fill="#E6E6E6"/>
<path d="M276.756 58.0246L271.499 61.792L271.496 61.788C271.238 61.985 270.854 62.0052 270.407 61.7937C269.544 61.3852 268.781 60.2822 268.704 59.3299C268.666 58.8535 268.805 58.5054 269.063 58.3276L274.297 54.5479C274.587 54.356 274.927 54.2323 275.299 54.2018C276.471 54.106 277.499 54.979 277.594 56.1517C277.656 56.9057 277.317 57.5992 276.756 58.0246Z" fill="#455A64"/>
<path d="M277.056 57.7452L277.045 57.7575C276.963 57.8424 276.866 57.9386 276.771 58.014C276.76 58.0149 276.761 58.0262 276.75 58.0272C277.227 56.7473 275.845 54.4814 274.419 54.4936C274.45 54.4682 274.493 54.4426 274.525 54.4293C274.557 54.4039 274.63 54.3686 274.63 54.3686C274.834 54.262 275.057 54.2177 275.303 54.1971C276.473 54.1015 277.498 54.9824 277.593 56.1531C277.643 56.7648 277.437 57.3328 277.056 57.7452Z" fill="#263238"/>
<path d="M269.39 66.8368C269.121 63.5385 266.477 59.7163 263.478 58.3009C262.346 57.7653 261.327 57.646 260.507 57.9037L244.101 62.9092C245.406 62.6682 246.985 62.9319 248.723 63.7438C253.973 66.2313 258.614 72.9313 259.084 78.7034C259.245 80.6761 258.894 82.2965 258.149 83.4683L268.607 69.9065C268.679 69.8217 268.75 69.727 268.809 69.6319C269.271 68.9551 269.486 68.0174 269.39 66.8368Z" fill="#E0E0E0"/>
<path opacity="0.1" d="M264.05 72.1895C263.717 68.1053 260.433 63.364 256.716 61.6003C254.872 60.74 253.278 60.7571 252.194 61.5202C251.065 62.2638 250.445 63.7522 250.614 65.8271C250.924 69.9131 254.209 74.6544 257.925 76.4174C259.793 77.2984 261.409 77.2788 262.513 76.4926C263.62 75.7283 264.216 74.2199 264.05 72.1895Z" fill="black"/>
<path d="M269.39 66.8368C269.121 63.5385 266.477 59.7163 263.478 58.3009C262.346 57.7653 261.327 57.646 260.507 57.9037L244.101 62.9092C245.406 62.6682 246.985 62.9319 248.723 63.7438C253.973 66.2313 258.614 72.9313 259.084 78.7034C259.245 80.6761 258.894 82.2965 258.149 83.4683L268.607 69.9065C268.679 69.8217 268.75 69.727 268.809 69.6319C269.271 68.9551 269.486 68.0174 269.39 66.8368Z" fill="#E0E0E0"/>
<path d="M272.87 63.2222L272.871 63.2242L272.882 63.2333L263.342 75.6101C263.261 75.7276 263.18 75.8459 263.087 75.9439C262.018 77.2025 260.151 77.4553 257.925 76.405C254.23 74.6573 250.956 69.9271 250.624 65.8458C250.431 63.4891 251.258 61.8669 252.702 61.2445C252.74 61.2313 252.771 61.2188 252.799 61.2065L253.213 61.0823L268.303 56.4798L268.31 56.4856C268.771 56.3439 269.348 56.4033 269.992 56.7075C271.676 57.5046 273.164 59.6566 273.316 61.5143C273.377 62.2641 273.202 62.8409 272.87 63.2222Z" fill="#27DEBF"/>
<path opacity="0.1" d="M272.87 63.2222L272.871 63.2242L272.882 63.2333L263.342 75.6101C263.261 75.7276 263.18 75.8459 263.087 75.9439C262.018 77.2025 260.151 77.4553 257.925 76.405C254.23 74.6573 250.956 69.9271 250.624 65.8458C250.431 63.4891 251.258 61.8669 252.702 61.2445C252.74 61.2313 252.771 61.2188 252.799 61.2065L253.213 61.0823L268.303 56.4798L268.31 56.4856C268.771 56.3439 269.348 56.4033 269.992 56.7075C271.676 57.5046 273.164 59.6566 273.316 61.5143C273.377 62.2641 273.202 62.8409 272.87 63.2222Z" fill="black"/>
<path d="M264.05 72.1895C263.717 68.1053 260.432 63.364 256.716 61.6003C254.872 60.74 253.277 60.7571 252.194 61.5202C251.065 62.2638 250.445 63.7522 250.614 65.8271C250.924 69.9131 254.209 74.6544 257.924 76.4174C259.793 77.2984 261.409 77.2788 262.513 76.4926C263.62 75.7283 264.216 74.2199 264.05 72.1895Z" fill="#27DEBF"/>
<path d="M264.05 72.1895C263.717 68.1053 260.432 63.364 256.716 61.6003C254.872 60.74 253.277 60.7571 252.194 61.5202C251.065 62.2638 250.445 63.7522 250.614 65.8271C250.924 69.9131 254.209 74.6544 257.924 76.4174C259.793 77.2984 261.409 77.2788 262.513 76.4926C263.62 75.7283 264.216 74.2199 264.05 72.1895Z" fill="#27DEBF"/>
<path opacity="0.05" d="M262.514 76.4934C261.581 77.158 260.28 77.2674 258.772 76.7564C257.735 72.2163 254.479 67.4682 250.603 64.831C250.678 63.2764 251.257 62.1384 252.195 61.5209C253.279 60.7584 254.872 60.7415 256.717 61.601C260.433 63.3647 263.717 68.1068 264.051 72.1902C264.216 74.22 263.62 75.7283 262.514 76.4934Z" fill="black"/>
<path d="M273.319 61.5137C273.167 59.6532 271.68 57.5082 269.988 56.7046C269.348 56.4094 268.77 56.3444 268.312 56.4937L268.299 56.4834L261.01 58.7046C261.685 58.5931 262.482 58.7305 263.356 59.1409C266.063 60.4232 268.453 63.8737 268.695 66.8373C268.777 67.8508 268.599 68.6847 268.211 69.2886L272.888 63.2318L272.875 63.2215C273.204 62.8468 273.38 62.2601 273.319 61.5137Z" fill="#27DEBF"/>
<path d="M75.7573 200.068C75.2057 200.461 74.399 200.47 73.4657 200.03C71.6098 199.15 69.9708 196.782 69.8156 194.742C69.7312 193.706 70.029 192.952 70.5924 192.581L102.85 170.277C102.412 170.683 102.188 171.374 102.262 172.277C102.43 174.327 104.082 176.716 105.938 177.597C106.79 177.999 107.531 178.017 108.068 177.727L75.7573 200.068Z" fill="#FAFAFA"/>
<path d="M76.5247 197.92C76.3581 195.881 74.7184 193.513 72.8632 192.633C71.9422 192.203 71.1468 192.212 70.6054 192.592C70.0413 192.964 69.732 193.707 69.8163 194.743C69.9716 196.783 71.6119 199.15 73.4664 200.031C74.3997 200.471 75.2064 200.461 75.7581 200.069C76.3099 199.687 76.6071 198.934 76.5247 197.92Z" fill="#E0E0E0"/>
<path d="M67.0416 214.76L66.9437 214.828C66.8996 214.86 66.8553 214.891 66.8089 214.921L57.5355 221.328C57.4395 221.402 57.3408 221.469 57.2391 221.533L57.1694 221.582L57.1653 221.576C55.7712 222.405 53.8228 222.399 51.5901 221.342C46.8787 219.11 42.7157 213.09 42.2928 207.895C42.0794 205.282 42.8538 203.378 44.274 202.412L44.2733 202.411L53.7003 195.89C53.7231 195.874 53.7459 195.858 53.7694 195.842L53.8452 195.79C55.2456 194.892 57.2463 194.879 59.5402 195.964C64.2517 198.196 68.4147 204.216 68.8375 209.411C69.0403 211.906 68.3431 213.757 67.0416 214.76Z" fill="#27DEBF"/>
<path opacity="0.05" d="M67.0416 214.76L66.9437 214.828C66.8996 214.86 66.8553 214.891 66.8089 214.921L57.5355 221.328C57.4395 221.402 57.3408 221.469 57.2391 221.533L57.1694 221.582L57.1653 221.576C55.7712 222.405 53.8228 222.399 51.5901 221.342C46.8787 219.11 42.7157 213.09 42.2928 207.895C42.0794 205.282 42.8538 203.378 44.274 202.412L44.2733 202.411L53.7003 195.89C53.7231 195.874 53.7459 195.858 53.7694 195.842L53.8452 195.79C55.2456 194.892 57.2463 194.879 59.5402 195.964C64.2517 198.196 68.4147 204.216 68.8375 209.411C69.0403 211.906 68.3431 213.757 67.0416 214.76Z" fill="black"/>
<path d="M259.922 72.5995L246.479 81.8951L108.419 177.641C108.41 177.665 108.388 177.678 108.366 177.679L108.08 177.882C107.542 178.173 106.8 178.155 105.949 177.752C104.093 176.872 102.441 174.482 102.274 172.432C102.2 171.529 102.424 170.838 102.862 170.433C102.861 170.422 102.872 170.421 102.872 170.421L103.244 170.166L241.304 74.4311L254.756 65.1128C255.297 64.7323 256.093 64.7236 257.014 65.1535C258.355 65.7843 259.581 67.1991 260.208 68.6954C260.303 68.9002 260.376 69.1084 260.449 69.3152C260.571 69.6981 260.646 70.0728 260.676 70.4414C260.76 71.4547 260.474 72.2189 259.922 72.5995Z" fill="#455A64"/>
<path d="M108.984 175.622C108.817 173.583 107.177 171.214 105.322 170.334C104.401 169.905 103.606 169.913 103.064 170.294C102.5 170.665 102.191 171.408 102.275 172.444C102.43 174.484 104.07 176.852 105.925 177.732C106.859 178.173 107.665 178.163 108.217 177.77C108.77 177.389 109.067 176.636 108.984 175.622Z" fill="#263238"/>
<path d="M259.922 72.5994L257.888 74.0059C256.747 71.2407 254.902 68.576 252.712 66.5292L254.757 65.1126C255.299 64.7321 256.094 64.7233 257.015 65.1532C258.357 65.784 259.582 67.1988 260.21 68.6951C260.47 69.2791 260.631 69.8717 260.678 70.4403C260.76 71.4546 260.474 72.2187 259.922 72.5994Z" fill="#263238"/>
<path d="M60.3364 216.396C59.866 210.627 55.2267 203.93 49.9782 201.438C47.3725 200.223 45.1216 200.248 43.5914 201.325C41.9959 202.375 41.1204 204.478 41.3592 207.409C41.7986 213.18 46.4371 219.877 51.685 222.369C54.3251 223.613 56.607 223.585 58.1669 222.475C59.7287 221.395 60.5706 219.264 60.3364 216.396Z" fill="#E0E0E0"/>
<path d="M59.2823 217.116C58.8119 211.348 54.1726 204.651 48.9241 202.159C46.3184 200.944 44.0675 200.969 42.5374 202.046L42.4613 202.086L40.3897 203.5C40.3481 203.537 40.3162 203.562 40.2736 203.588C40.1679 203.664 40.0737 203.75 39.9689 203.837C39.8321 203.949 39.7086 204.083 39.5955 204.216C39.5239 204.3 39.4529 204.384 39.3814 204.48C39.3598 204.493 39.3502 204.504 39.3408 204.528C39.2804 204.612 39.2096 204.706 39.1512 204.813C38.8823 205.227 38.6731 205.693 38.5147 206.222C38.4705 206.372 38.427 206.521 38.3941 206.67C38.3668 206.75 38.3506 206.819 38.3452 206.898C38.3114 207.036 38.2895 207.172 38.2774 207.307C38.1654 208 38.1486 208.753 38.2158 209.577C38.6871 215.349 43.3151 222.038 48.5427 224.517C50.0713 225.244 51.4735 225.523 52.6998 225.422L52.7336 225.42C52.9232 225.404 53.1119 225.378 53.2883 225.341L53.8044 225.209C53.9139 225.177 54.0112 225.136 54.1092 225.095L54.294 225.023C54.413 224.969 54.5318 224.914 54.6488 224.837L54.7242 224.797C54.8309 224.733 54.9495 224.667 55.0553 224.591L56.8609 223.356C56.7969 223.396 56.9709 223.297 57.1155 223.194C58.6739 222.115 59.5157 219.984 59.2823 217.116Z" fill="#27DEBF"/>
<path opacity="0.3" d="M57.1861 218.533C56.7158 212.766 52.0772 206.069 46.8295 203.579C44.2245 202.364 41.9743 202.388 40.4442 203.465C38.8486 204.516 37.9738 206.617 38.2126 209.548C38.6518 215.318 43.2896 222.014 48.5367 224.505C51.176 225.749 53.4587 225.722 55.0172 224.612C56.5783 223.531 57.4195 221.401 57.1861 218.533Z" fill="#662929"/>
<path d="M66.9834 199.212L66.9844 199.141C72.5027 199.894 78.6409 200.609 82.0313 200.612C89.0188 200.62 89.0278 199.994 88.8897 199.178C88.5201 196.99 76.5985 198.699 78.9478 196.844C81.2972 194.991 93.7692 196.451 93.2884 194.18C92.6616 191.22 80.2154 193.24 79.1495 193.332C78.1134 193.422 77.9127 191.885 78.8783 191.853C80.2681 191.808 94.855 190.957 94.2669 188.044C93.9411 186.43 91.099 187.286 91.099 187.286C91.099 187.286 77.5094 189.087 77.2789 187.702C77.0425 186.296 84.9857 184.97 87.6956 184.712C90.3738 184.458 91.3414 183.079 90.2437 181.985C89.4947 181.24 81.177 181.833 78.5038 182.15C75.8296 182.468 68.5123 183.47 71.7179 180.038C74.9246 176.605 76.0968 172.759 75.6905 171.497C75.2842 170.235 73.3829 170.341 72.9239 171.725C72.5524 172.845 71.3563 174.518 70.4067 175.737C69.6229 176.743 68.6791 177.617 67.6053 178.303C66.3516 179.101 65.2589 179.729 64.3162 180.239C64.3162 180.239 61.7194 181.517 61.1006 184.018C60.4817 186.519 63.6327 198.55 63.6327 198.55L66.9834 199.212Z" fill="#D7D8F7"/>
<path d="M58.1066 180.276L58.5953 199.225C58.6271 200.445 59.5351 201.464 60.743 201.633L60.8483 201.648C62.3791 201.861 63.7331 200.644 63.6845 199.098L63.0904 180.135C63.0547 178.991 62.246 178.017 61.1285 177.774C59.549 177.429 58.0648 178.658 58.1066 180.276Z" fill="#D7D8F7"/>
<path d="M57.7349 130.526C57.3733 128.715 21.5784 157.753 6.5385 170.045C2.39705 173.43 0 178.495 0 183.847C0 193.691 7.97198 201.672 17.8056 201.672H61.4005V179.535H32.9915L69.444 155.496L57.7349 130.526Z" fill="#D7D8F7"/>
<g opacity="0.7">
<path d="M66.9834 199.213L66.9844 199.141C72.5027 199.895 78.6409 200.61 82.0313 200.613C89.0188 200.621 89.0278 199.994 88.8897 199.179C88.5201 196.99 76.5985 198.7 78.9478 196.845C81.2972 194.991 93.7692 196.451 93.2884 194.181C92.6616 191.22 80.2154 193.24 79.1495 193.332C78.1134 193.422 77.9127 191.886 78.8783 191.854C80.2681 191.808 94.855 190.958 94.2669 188.045C93.9411 186.431 91.099 187.286 91.099 187.286C91.099 187.286 77.5094 189.087 77.2789 187.703C77.0425 186.297 84.9857 184.97 87.6956 184.713C90.3738 184.459 91.3414 183.08 90.2437 181.986C89.4947 181.241 81.177 181.834 78.5038 182.151C75.8296 182.468 68.5123 183.47 71.7179 180.039C74.9246 176.606 76.0968 172.759 75.6905 171.497C75.2842 170.235 73.3829 170.342 72.9239 171.726C72.5524 172.846 71.3563 174.518 70.4067 175.738C69.6229 176.744 68.6791 177.617 67.6053 178.303C66.3516 179.102 65.2589 179.729 64.3162 180.239C64.3162 180.239 61.7194 181.517 61.1006 184.018C60.4817 186.519 63.6327 198.55 63.6327 198.55L66.9834 199.213Z" fill="#999999"/>
</g>
<path d="M1.42662 176.352C1.40675 176.331 1.74052 175.948 2.41901 175.329C3.0965 174.708 4.1485 173.882 5.57004 173.046C8.36843 171.366 12.9082 169.799 17.9745 170.344C23.0398 170.899 27.1445 173.38 29.5396 175.598C30.7595 176.708 31.6217 177.73 32.1611 178.473C32.7006 179.217 32.9529 179.659 32.9291 179.675C32.8396 179.747 31.7618 177.994 29.2982 175.874C26.8803 173.762 22.8471 171.4 17.9189 170.859C12.9907 170.329 8.54823 171.795 5.74985 173.365C2.90477 174.935 1.50013 176.443 1.42662 176.352Z" fill="#263238"/>
<path d="M64.3429 149.118C64.4264 149.235 56.3819 155.139 46.3785 162.304C36.3711 169.472 28.1944 175.186 28.111 175.07C28.0276 174.953 36.07 169.05 46.0775 161.883C56.0809 154.718 64.2595 149.002 64.3429 149.118Z" fill="#263238"/>
<path d="M57.8997 191.276C57.9007 191.294 57.708 191.327 57.3394 191.373C56.9133 191.42 56.3788 191.479 55.7232 191.551C54.3185 191.697 52.2831 191.876 49.7658 192.07C44.7323 192.46 37.7667 192.874 30.0649 193.102C22.3601 193.325 15.3825 193.321 10.3341 193.227C7.80993 193.18 5.76752 193.122 4.3579 193.058C3.69928 193.024 3.16284 192.997 2.7337 192.975C2.36217 192.951 2.16846 192.929 2.16846 192.911C2.16846 192.893 2.36415 192.88 2.73568 192.871C3.16483 192.867 3.70225 192.863 4.36087 192.857C5.84301 192.858 7.86755 192.86 10.3371 192.861C15.3826 192.862 22.3532 192.808 30.049 192.585C37.7428 192.357 44.7035 192.002 49.74 191.705C52.2056 191.559 54.2251 191.439 55.7053 191.35C56.3639 191.318 56.9003 191.291 57.3295 191.27C57.702 191.256 57.8977 191.258 57.8997 191.276Z" fill="#263238"/>
<g opacity="0.2">
<path d="M36.8765 177.078C36.7355 173.548 33.942 170.48 30.6052 169.327C27.2694 168.174 22.829 169.223 19.5488 170.526C24.779 172.049 30.1274 174.993 33.052 179.593L36.8765 177.078Z" fill="black"/>
</g>
<path opacity="0.5" d="M58.1063 180.276L58.5951 199.226C58.6269 200.446 59.5348 201.464 60.7428 201.633L60.8481 201.648C62.3789 201.862 63.7329 200.645 63.6842 199.098L63.0902 180.135C63.0544 178.991 62.2458 178.018 61.1282 177.774C59.5487 177.429 58.0646 178.658 58.1063 180.276Z" fill="#999999"/>
<path d="M66.5264 158.069C66.4211 157.952 68.8459 156.804 71.2678 153.461C72.4778 151.814 73.5804 149.599 74.2798 146.988C74.6016 145.678 74.843 144.276 74.9076 142.808C74.9613 141.34 74.855 139.818 74.5699 138.289C73.9917 135.252 72.5344 132.446 70.2715 130.999C68.0194 129.539 65.4654 129.311 63.4548 129.403C61.4114 129.51 59.7773 129.889 58.6508 130.123C57.5243 130.37 56.8984 130.506 56.8895 130.47C56.8855 130.453 57.0345 130.395 57.3246 130.301C57.6146 130.209 58.0448 130.08 58.6031 129.928C59.7187 129.633 61.3498 129.196 63.4339 129.038C65.4873 128.9 68.1297 129.079 70.5317 130.599C71.7188 131.357 72.744 132.476 73.497 133.797C74.2579 135.117 74.7636 136.621 75.0775 138.189C75.3715 139.762 75.4768 141.326 75.4143 142.832C75.3407 144.338 75.0825 145.773 74.7407 147.112C73.9997 149.778 72.8354 152.025 71.5629 153.68C70.2973 155.342 69.0237 156.479 68.0671 157.138C67.6121 157.5 67.1979 157.695 66.9426 157.86C66.6784 158.011 66.5353 158.085 66.5264 158.069Z" fill="#263238"/>
</svg>
