<svg width="120" height="141" viewBox="0 0 120 141" fill="none" xmlns="http://www.w3.org/2000/svg">
<path d="M119.105 21.8426C87.3727 14.4205 56.0057 7.15179 24.9161 0C13.2336 38.3002 16.383 82.8326 0 119.157C31.7324 126.579 63.0994 133.848 94.189 141C105.871 102.7 102.722 58.1674 119.105 21.8426Z" fill="#EBEBEB"/>
<path d="M14.729 104.512C31.9622 108.466 49.1137 112.386 66.1999 116.279C66.4326 115.267 66.6577 114.252 66.8762 113.234C49.8328 109.36 32.7289 105.46 15.5492 101.527C15.2842 102.526 15.011 103.521 14.729 104.512Z" fill="#DBDBDB"/>
<path d="M16.6992 96.9382C33.8049 100.839 50.8424 104.712 67.827 108.561C68.0256 107.536 68.2178 106.507 68.4046 105.476C51.4541 101.64 34.4559 97.7838 17.3943 93.9017C17.1699 94.917 16.9384 95.9294 16.6992 96.9382Z" fill="#DBDBDB"/>
<path d="M18.3718 89.24C35.3723 93.0968 52.3176 96.93 69.2229 100.747C69.3945 99.7092 69.5613 98.6698 69.7247 97.6286C52.8446 93.8224 35.9299 90.0021 18.9647 86.16C18.7737 87.1894 18.5757 88.2159 18.3718 89.24Z" fill="#DBDBDB"/>
<path d="M19.8044 81.4401C44.5913 87.0395 69.2877 92.6008 93.94 98.1438C94.0845 97.095 94.2273 96.0456 94.3677 94.9951C69.7324 89.4591 45.0655 83.9102 20.3174 78.3271C20.1511 79.3665 19.9801 80.4042 19.8044 81.4401Z" fill="#DBDBDB"/>
<path d="M21.0522 73.5626C45.7492 79.1245 70.3833 84.6599 95.0015 90.1882C95.1384 89.1359 95.2742 88.0836 95.4099 87.0313C70.7964 81.5047 46.1781 75.9757 21.5076 70.425C21.359 71.4727 21.2074 72.5185 21.0522 73.5626Z" fill="#DBDBDB"/>
<path d="M22.1711 65.6311C46.8105 71.1689 71.4146 76.6914 96.0305 82.2192C96.1668 81.1669 96.3037 80.1151 96.4418 79.0634C71.8177 73.5321 47.2171 68.0108 22.5912 62.4789C22.4532 63.5306 22.3133 64.5812 22.1711 65.6311Z" fill="#DBDBDB"/>
<path d="M23.218 57.6698C47.8321 63.1969 72.4386 68.7206 97.0839 74.2607C97.2272 73.2113 97.3723 72.1625 97.5204 71.1155C72.854 65.5666 48.2381 60.0388 23.6252 54.5122C23.4895 55.5645 23.3537 56.6174 23.218 57.6698Z" fill="#DBDBDB"/>
<path d="M24.248 49.7013C48.8692 55.2308 73.5098 60.7692 98.2173 66.3357C98.3748 65.2922 98.5358 64.2505 98.7009 63.2105C73.9598 57.6304 49.2964 52.0827 24.664 46.5479C24.5242 47.5978 24.3855 48.6496 24.248 49.7013Z" fill="#DBDBDB"/>
<path d="M25.3186 41.7497C49.9785 47.2957 74.6855 52.8617 99.4876 58.4676C99.6668 57.4335 99.8507 56.4012 100.041 55.3712C75.1926 49.7459 50.4504 44.1652 25.7663 38.6086C25.6141 39.6545 25.4649 40.7015 25.3186 41.7497Z" fill="#DBDBDB"/>
<path d="M26.4851 33.8377C51.2161 39.4136 76.0218 45.0213 100.95 50.6801C101.159 49.6578 101.373 48.6389 101.595 47.6224C76.6082 41.939 51.7538 36.3107 26.9857 30.7195C26.8147 31.7571 26.6479 32.7965 26.4851 33.8377Z" fill="#DBDBDB"/>
<path d="M27.8035 25.9901C52.6379 31.6096 77.5746 37.2719 102.662 42.9977C102.907 41.9912 103.159 40.9876 103.421 39.9876C78.2621 34.2319 53.2643 28.5437 28.3804 22.9037C28.1819 23.9302 27.9897 24.959 27.8035 25.9901Z" fill="#DBDBDB"/>
<path d="M29.3301 18.2303C54.2997 23.9067 79.3997 29.6378 104.678 35.4435C104.967 34.4552 105.265 33.471 105.573 32.491C80.2111 26.6494 55.0376 20.8878 30.0052 15.1849C29.7725 16.1973 29.5481 17.212 29.3301 18.2303Z" fill="#DBDBDB"/>
<path d="M79.7156 137.328C90.4468 137.328 99.1462 128.629 99.1462 117.898C99.1462 107.166 90.4468 98.467 79.7156 98.467C68.9843 98.467 60.2849 107.166 60.2849 117.898C60.2849 128.629 68.9843 137.328 79.7156 137.328Z" fill="#FFC727"/>
<path d="M81.7102 105.898H77.7207V129.897H81.7102V105.898Z" fill="white"/>
<path d="M91.7156 119.893V115.903H67.716V119.893H91.7156Z" fill="white"/>
</svg>
