<svg width="41" height="89" viewBox="0 0 41 89" fill="none" xmlns="http://www.w3.org/2000/svg">
<path d="M32.605 84.3892C29.295 86.8732 25.192 88.3962 20.787 88.4682C15.684 88.5522 10.559 86.5882 6.72803 83.0812C2.76703 79.4552 0.538994 74.6332 0.455994 69.5042L0 41.5072L3.63098 41.4482L4.08704 69.4452C4.15404 73.5672 5.96303 77.4572 9.18103 80.4022C12.335 83.2892 16.544 84.9052 20.729 84.8372C29.61 84.6922 36.997 77.3992 36.859 68.9112L35.995 15.8952C35.941 12.5662 34.593 9.45719 32.201 7.14119C29.809 4.82619 26.657 3.58019 23.329 3.63419C16.457 3.74719 10.957 9.42719 11.069 16.3002L11.905 67.5842C11.948 70.2152 12.872 72.6212 14.508 74.3572C16.17 76.1202 18.374 77.0312 20.885 76.9902C25.997 76.9062 29.644 72.8302 29.554 67.2952L28.835 23.2002L32.466 23.1412L33.185 67.2362C33.308 74.7512 28.046 80.5052 20.945 80.6212C13.844 80.7372 8.39702 75.1572 8.27502 67.6422L7.43903 16.3582C7.29403 7.48419 14.395 0.146193 23.271 0.0021928C27.57 -0.0678072 31.639 1.54019 34.728 4.53019C37.817 7.52019 39.557 11.5352 39.627 15.8342L40.491 68.8502C40.59 75.0632 37.447 80.7542 32.605 84.3892Z" fill="#ADC0CA"/>
</svg>
