<svg width="114" height="114" viewBox="0 0 114 114" fill="none" xmlns="http://www.w3.org/2000/svg">
<path d="M74.4181 64.0033L63.8548 74.5666C63.8548 74.5666 57.3435 67.2667 48.7249 68.0915C45.5372 61.0942 41.8951 46.1837 40.8912 41.9283L55.2757 56.3128C54.8139 57.1574 54.9411 58.2333 55.6544 58.9466C56.5232 59.8154 57.9255 59.8154 58.7943 58.9466C59.6628 58.0781 59.6669 56.6717 58.7981 55.8029C58.0848 55.0896 57.0052 54.9661 56.1602 55.4279L41.7757 41.0435C46.0311 42.0473 60.9416 45.6894 67.9389 48.8772C67.1182 57.4924 74.4181 64.0033 74.4181 64.0033Z" fill="#407BFF"/>
<path opacity="0.2" d="M67.9398 48.8788C60.9439 45.6899 46.0301 42.0489 41.7736 41.0439L56.1577 55.4281C57.0049 54.9644 58.0841 55.0875 58.7996 55.803C59.667 56.6703 59.6614 58.0786 58.794 58.9459L69.1335 69.2854L74.4178 64.0011C74.4178 64.0019 67.1183 57.4925 67.9398 48.8788Z" fill="black"/>
<path d="M103.564 103.716C101.711 105.57 98.6783 105.57 96.825 103.716L65.8461 72.7375L72.5852 65.9983L103.564 96.9772C105.417 98.8305 105.417 101.863 103.564 103.716Z" fill="#407BFF"/>
<path opacity="0.7" d="M103.564 103.716C101.711 105.57 98.6783 105.57 96.825 103.716L65.8461 72.7375L72.5852 65.9983L103.564 96.9772C105.417 98.8305 105.417 101.863 103.564 103.716Z" fill="white"/>
<path d="M76.3218 69.0873L68.9351 76.4741C68.5105 76.8986 67.8159 76.8986 67.3914 76.4741L65.5224 74.6051C65.0978 74.1805 65.0978 73.4859 65.5224 73.0614L72.9092 65.6746C73.3337 65.2501 74.0283 65.2501 74.4529 65.6746L76.3218 67.5436C76.7464 67.9681 76.7464 68.6631 76.3218 69.0873Z" fill="#407BFF"/>
<path d="M76.1495 65.847L65.6948 76.3017C65.1848 76.8117 64.3499 76.8117 63.8396 76.3017L62.1194 74.5816C61.6091 74.0716 61.6091 73.2367 62.1194 72.7264L72.5742 62.2716C73.0842 61.7617 73.9191 61.7617 74.429 62.2716L76.1492 63.9918C76.6595 64.5021 76.6595 65.337 76.1495 65.847Z" fill="#407BFF"/>
<path opacity="0.4" d="M76.1495 65.847L65.6948 76.3017C65.1848 76.8117 64.3499 76.8117 63.8396 76.3017L62.1194 74.5816C61.6091 74.0716 61.6091 73.2367 62.1194 72.7264L72.5742 62.2716C73.0842 61.7617 73.9191 61.7617 74.429 62.2716L76.1492 63.9918C76.6595 64.5021 76.6595 65.337 76.1495 65.847Z" fill="black"/>
<path d="M65.0988 69.7446L63.5939 71.2495L67.1689 74.8246L68.6738 73.3197L65.0988 69.7446Z" fill="white"/>
<path d="M69.6908 72.3111L70.3083 71.6936L66.7333 68.1185L66.1158 68.7361L69.6908 72.3111Z" fill="white"/>
<path d="M38.456 108.532C19.1782 89.2541 19.1782 57.8868 38.456 38.609C57.7338 19.3312 89.1011 19.3312 108.379 38.609L107.806 39.1816C88.8441 20.2194 57.9905 20.2194 39.0283 39.1816C20.0661 58.1438 20.0661 88.9974 39.0283 107.96L38.456 108.532Z" fill="#407BFF"/>
<path d="M73.1302 3.93394L3.7804 73.2837L4.35281 73.8561L73.7026 4.50635L73.1302 3.93394Z" fill="#407BFF"/>
<path d="M38.7415 33.7132L33.5597 38.895L38.7415 44.0768L43.9233 38.895L38.7415 33.7132Z" fill="white"/>
<path d="M38.7424 44.6493L32.988 38.8949L38.7424 33.1406L44.4967 38.8949L38.7424 44.6493ZM34.1329 38.8949L38.7424 43.5044L43.3518 38.8949L38.7424 34.2855L34.1329 38.8949Z" fill="#407BFF"/>
<path d="M38.7411 103.064L33.5593 108.245L38.7411 113.427L43.9229 108.245L38.7411 103.064Z" fill="white"/>
<path d="M38.7424 114L32.988 108.246L38.7424 102.491L44.4967 108.246L38.7424 114ZM34.1329 108.245L38.7424 112.855L43.3518 108.245L38.7424 103.636L34.1329 108.245Z" fill="#407BFF"/>
<path d="M108.242 33.5633L103.06 38.7451L108.242 43.9269L113.423 38.7451L108.242 33.5633Z" fill="white"/>
<path d="M108.243 44.4991L102.489 38.7448L108.243 32.9905L113.998 38.7448L108.243 44.4991ZM103.634 38.7444L108.243 43.3538L112.853 38.7444L108.243 34.135L103.634 38.7444Z" fill="#407BFF"/>
<path d="M76.159 1.4783C77.59 2.90932 77.59 5.22933 76.159 6.65998C74.728 8.09101 72.408 8.09101 70.977 6.65998C69.5459 5.22896 69.5459 2.90895 70.977 1.4783C72.408 0.047273 74.7284 0.047273 76.159 1.4783Z" fill="white"/>
<path d="M73.568 8.13811C72.4813 8.13811 71.4595 7.71507 70.6907 6.94622C69.1041 5.35963 69.1041 2.77811 70.6907 1.1919C71.4592 0.423413 72.4809 0 73.568 0C74.6547 0 75.6765 0.42304 76.445 1.1919C77.2135 1.96038 77.6369 2.98217 77.6369 4.06924C77.6369 5.15594 77.2138 6.17773 76.445 6.94659C75.6765 7.71507 74.6547 8.13811 73.568 8.13811ZM73.568 0.809893C72.6973 0.809893 71.8788 1.149 71.2633 1.76453C69.9927 3.03552 69.9927 5.10297 71.2633 6.37395C72.5343 7.64494 74.6021 7.64457 75.8727 6.37395C76.4883 5.75842 76.8274 4.93994 76.8274 4.06924C76.8274 3.19854 76.4883 2.38007 75.8727 1.76453C75.2572 1.149 74.4387 0.809893 73.568 0.809893Z" fill="#407BFF"/>
<path d="M6.65803 70.9795C8.08906 72.4105 8.08906 74.7306 6.65803 76.1616C5.22701 77.5926 2.907 77.5926 1.47598 76.1616C0.0449537 74.7306 0.0449537 72.4105 1.47598 70.9795C2.907 69.5485 5.22701 69.5485 6.65803 70.9795Z" fill="white"/>
<path d="M4.06716 77.6373C3.02523 77.6373 1.9833 77.2408 1.18982 76.4477C-0.396769 74.8611 -0.396769 72.2796 1.18982 70.6934C2.7764 69.1068 5.35792 69.1068 6.94413 70.6934C8.53072 72.2799 8.53072 74.8611 6.94413 76.4477C6.15103 77.2408 5.10909 77.6373 4.06716 77.6373ZM4.06716 70.3128C3.23227 70.3128 2.39813 70.6303 1.76245 71.266C0.491465 72.5366 0.491465 74.6044 1.76245 75.8754C3.03344 77.1464 5.10126 77.146 6.37187 75.8754C7.64249 74.6044 7.64249 72.537 6.37187 71.266C5.73657 70.6307 4.90168 70.3128 4.06716 70.3128Z" fill="#407BFF"/>
</svg>
