<svg width="88" height="46" viewBox="0 0 88 46" fill="none" xmlns="http://www.w3.org/2000/svg">
<path d="M6.78417 40.4287C3.69534 37.6768 1.39221 33.9572 0.450569 29.6548C-0.640019 24.6707 0.270637 19.2607 2.94962 14.8134C5.71958 10.2151 10.004 7.07933 15.0131 5.98274L42.3567 0L43.1324 3.54666L15.7888 9.5294C11.7633 10.4101 8.30858 12.9521 6.05843 16.6867C3.85327 20.3483 3.10156 24.7916 3.99623 28.8791C5.89351 37.5528 14.5013 43.3486 22.7911 41.5363L74.5686 30.2076C77.8203 29.4959 80.5993 27.5606 82.3956 24.7596C84.1909 21.9577 84.7887 18.624 84.077 15.3722C82.6085 8.66073 75.954 4.39434 69.2416 5.86279L19.1555 16.8207C16.5854 17.3834 14.4113 18.7649 13.0328 20.7102C11.6333 22.6864 11.1765 25.0275 11.7133 27.4786C12.8059 32.4717 17.5211 35.2387 22.9271 34.0571L65.9928 24.6347L66.7685 28.1814L23.7028 37.6038C16.3635 39.2102 9.68407 35.1917 8.16665 28.2563C6.64922 21.3209 11.0395 14.8804 18.3798 13.275L68.4659 2.31713C77.1336 0.420849 85.7274 5.92876 87.6226 14.5965C88.5413 18.7949 87.7695 23.1003 85.4504 26.7189C83.1313 30.3375 79.5416 32.8356 75.3432 33.7542L23.5658 45.083C17.5021 46.4095 11.3035 44.4552 6.78417 40.4287Z" fill="#66B6DD"/>
</svg>
